<svg class="icon" width="200px" height="200.00px" viewBox="0 0 1024 1024" version="1.1" xmlns="http://www.w3.org/2000/svg"><path  d="M873.673 66.877H150.324c-46.078 0-83.464 37.439-83.464 83.464v500.78c0 46.025 37.385 83.463 83.464 83.463h296.033v166.9H205.86c-15.325 0-27.822 12.445-27.822 27.822s12.498 27.82 27.822 27.82h612.063c15.431 0 27.823-12.442 27.823-27.82s-12.392-27.821-27.823-27.821h-260.28V734.583h316.03c45.97 0 83.465-37.438 83.465-83.463V150.34c0-46.024-37.494-83.463-83.464-83.463z m27.821 584.243c0 15.35-12.497 27.821-27.821 27.821H150.324c-15.377 0-27.821-12.47-27.821-27.821V150.34c0-15.35 12.443-27.822 27.821-27.822h723.349c15.324 0 27.821 12.471 27.821 27.822v500.78z"  /></svg>