<?xml version="1.0" encoding="utf-8"?>
<!-- Generator: Adobe Illustrator 16.0.0, SVG Export Plug-In . SVG Version: 6.00 Build 0)  -->
<!DOCTYPE svg PUBLIC "-//W3C//DTD SVG 1.1//EN" "http://www.w3.org/Graphics/SVG/1.1/DTD/svg11.dtd">
<svg version="1.1" id="图层_1" xmlns="http://www.w3.org/2000/svg" xmlns:xlink="http://www.w3.org/1999/xlink" x="0px" y="0px"
	 width="16px" height="16px" viewBox="0 0 16 16" enable-background="new 0 0 16 16" xml:space="preserve">
<path  d="M4.402,1.754H3.61c-0.95,0-1.453,0.722-1.742,1.761l-1.775,8.702c-0.003,0.021-0.004,0.042-0.004,0.061
	c0,0.99,0.781,1.795,1.742,1.795h12.353c0.961,0,1.741-0.805,1.741-1.795c0-0.019-0.001-0.038-0.002-0.061l-1.644-8.702
	c-0.233-1.141-0.791-1.761-1.74-1.761h-1.756 M2.735,3.548c0.204-0.55,0.393-0.901,0.875-0.901h8.929
	c0.482,0,0.703,0.333,0.859,0.901c0.006,0.02,0.012,0.028,0.02,0.061l1.213,6.483H1.385 M14.186,13.18H1.832
	c-0.474,0-0.86-0.39-0.875-0.873l0.31-1.322h13.484l0.31,1.322C15.045,12.79,14.659,13.18,14.186,13.18z"/>
<path  d="M10.077,12.495h0.543c0.208,0,0.376-0.173,0.376-0.388s-0.168-0.387-0.376-0.387h-0.543
	c-0.207,0-0.376,0.172-0.376,0.387S9.87,12.495,10.077,12.495L10.077,12.495z M12.012,12.316h0.291c0.111,0,0.204-0.094,0.204-0.209
	c0-0.116-0.093-0.211-0.204-0.211h-0.291c-0.113,0-0.205,0.095-0.205,0.211C11.807,12.223,11.898,12.316,12.012,12.316z
	 M7.895,12.495h0.542c0.208,0,0.375-0.173,0.375-0.388s-0.168-0.387-0.375-0.387H7.895c-0.208,0-0.377,0.172-0.377,0.387
	S7.686,12.495,7.895,12.495z M10.755,7.015c0,0.107-0.082,0.193-0.187,0.193H6.251c-0.104,0-0.188-0.086-0.188-0.193L6.196,6.4
	c0-0.108,0.084-0.194,0.188-0.194h4.05c0.105,0,0.188,0.086,0.188,0.194L10.755,7.015L10.755,7.015z"/>
</svg>
