<?xml version="1.0" encoding="utf-8"?>
<!-- Generator: Adobe Illustrator 16.0.0, SVG Export Plug-In . SVG Version: 6.00 Build 0)  -->
<!DOCTYPE svg PUBLIC "-//W3C//DTD SVG 1.1//EN" "http://www.w3.org/Graphics/SVG/1.1/DTD/svg11.dtd">
<svg version="1.1" id="图层_1" xmlns="http://www.w3.org/2000/svg" xmlns:xlink="http://www.w3.org/1999/xlink" x="0px" y="0px"
	 width="16px" height="16px" viewBox="0 0 16 16" enable-background="new 0 0 16 16" xml:space="preserve">
<path fill="#FFFFFF" d="M13.994,11.309V7.914c0-0.006,0-0.011,0-0.017s0-0.012,0-0.017V7.864c0-0.221-0.178-0.4-0.397-0.4H8.161
	V4.743c0-0.007,0-0.013,0-0.019c1.111-0.193,1.957-1.162,1.957-2.329c0-1.305-1.058-2.363-2.364-2.363
	c-1.305,0-2.363,1.058-2.363,2.363c0,1.167,0.845,2.136,1.957,2.329c0,0.006,0,0.012,0,0.019v2.722H2.418
	c-0.221,0-0.399,0.179-0.399,0.399V7.88c0,0.005,0,0.011,0,0.017s0,0.011,0,0.017v3.395c-1.111,0.193-1.956,1.162-1.956,2.329
	C0.063,14.942,1.121,16,2.426,16c1.305,0,2.363-1.058,2.363-2.362c0-1.167-0.845-2.136-1.956-2.329v-3.03h10.348v3.03
	c-1.111,0.193-1.956,1.162-1.956,2.329c0,1.305,1.059,2.362,2.364,2.362c1.305,0,2.362-1.058,2.362-2.362
	C15.951,12.471,15.106,11.502,13.994,11.309z M6.205,2.395c0-0.855,0.694-1.548,1.549-1.548S9.303,1.54,9.303,2.395
	c0,0.856-0.694,1.549-1.549,1.549S6.205,3.251,6.205,2.395z M3.975,13.638c0,0.854-0.693,1.549-1.548,1.549
	s-1.549-0.694-1.549-1.549c0-0.855,0.694-1.55,1.549-1.55S3.975,12.782,3.975,13.638z M13.589,15.187
	c-0.855,0-1.55-0.694-1.55-1.549c0-0.855,0.694-1.55,1.55-1.55s1.549,0.694,1.549,1.55C15.138,14.492,14.444,15.187,13.589,15.187z"
	/>
</svg>
