<?xml version="1.0" encoding="utf-8"?>
<!-- Generator: Adobe Illustrator 16.0.0, SVG Export Plug-In . SVG Version: 6.00 Build 0)  -->
<!DOCTYPE svg PUBLIC "-//W3C//DTD SVG 1.1//EN" "http://www.w3.org/Graphics/SVG/1.1/DTD/svg11.dtd">
<svg version="1.1" id="图层_1" xmlns="http://www.w3.org/2000/svg" xmlns:xlink="http://www.w3.org/1999/xlink" x="0px" y="0px"
	 width="16px" height="16px" viewBox="0 0 16 16" enable-background="new 0 0 16 16" xml:space="preserve">
<path fill="#FFFFFF" d="M15.621,12.732V0.132c-0.051-0.003-0.104-0.007-0.15-0.007c-3.56,0-9.284-0.002-12.843,0.003
	C2.392,0.13,2.148,0.165,1.923,0.234C1.02,0.509,0.455,1.302,0.455,2.272c-0.001,4.067,0,6.866,0,10.934
	c0,0.051,0,0.103,0.002,0.155c0.023,0.728,0.286,1.514,0.882,1.974c0.419,0.323,0.901,0.479,1.434,0.479h12.832v-0.063
	c0.018,0.001,0.018,0.001,0.018,0.003v-1.156c-0.321-0.188-0.541-0.533-0.541-0.934C15.08,13.265,15.3,12.918,15.621,12.732z
	 M14.297,14.747H2.622c-0.598,0-1.083-0.484-1.083-1.083s0.485-1.082,1.083-1.082h11.675c-0.186,0.32-0.301,0.686-0.301,1.082
	C13.996,14.06,14.111,14.426,14.297,14.747z M14.539,11.497H14.34c-2.973,0-8.112,0.001-11.086-0.004
	c-0.594-0.002-1.189-0.006-1.73,0.352v-0.197c0-3.382,0.006-5.985-0.008-9.366c-0.002-0.587,0.406-1.11,1.136-1.109
	c3.186,0.008,8.539,0.001,11.723,0.001h0.164V11.497z"/>
<path fill="#FFFFFF" d="M10.007,3.773c-0.248-0.213-0.55-0.36-0.902-0.442C8.852,3.273,8.486,3.243,8.007,3.243H5.884v6.163h2.224
	c0.374,0,0.703-0.035,0.991-0.104c0.286-0.07,0.531-0.174,0.735-0.31c0.203-0.137,0.391-0.322,0.562-0.56
	c0.171-0.236,0.311-0.536,0.42-0.897c0.109-0.361,0.165-0.776,0.165-1.244c0-0.549-0.081-1.038-0.244-1.464
	C10.576,4.398,10.334,4.047,10.007,3.773z M9.977,7.466c-0.107,0.326-0.259,0.586-0.452,0.78C9.387,8.384,9.204,8.49,8.971,8.565
	C8.741,8.641,8.421,8.68,8.015,8.68H6.7V3.97h1.294c0.484,0,0.837,0.042,1.057,0.126c0.302,0.118,0.558,0.35,0.77,0.696
	c0.213,0.346,0.318,0.841,0.318,1.486C10.139,6.744,10.084,7.14,9.977,7.466z"/>
</svg>
