<?xml version="1.0" encoding="utf-8"?>
<!-- Generator: Adobe Illustrator 16.0.0, SVG Export Plug-In . SVG Version: 6.00 Build 0)  -->
<!DOCTYPE svg PUBLIC "-//W3C//DTD SVG 1.1//EN" "http://www.w3.org/Graphics/SVG/1.1/DTD/svg11.dtd">
<svg version="1.1" id="图层_1" xmlns="http://www.w3.org/2000/svg" xmlns:xlink="http://www.w3.org/1999/xlink" x="0px" y="0px"
	 width="16px" height="16px" viewBox="0 0 16 16" enable-background="new 0 0 16 16" xml:space="preserve">
<path fill="#FFFFFF" d="M10.651,6.757c-0.434,0-0.784-0.35-0.784-0.783l0,0c0-1.028-0.834-1.861-1.861-1.861
	c-1.028,0-1.861,0.833-1.861,1.861c0,0.433-0.351,0.783-0.783,0.783s-0.784-0.35-0.784-0.783l0,0c0-1.893,1.535-3.428,3.428-3.428
	c1.893,0,3.427,1.535,3.427,3.428C11.434,6.407,11.083,6.757,10.651,6.757z"/>
<path fill="#FFFFFF" d="M13.051,6.757c-0.434,0-0.785-0.35-0.785-0.783l0,0c0-2.353-1.907-4.26-4.259-4.26
	c-2.353,0-4.261,1.907-4.261,4.26l0,0c0,0.433-0.351,0.783-0.784,0.783c-0.433,0-0.784-0.35-0.784-0.783l0,0
	c0-3.219,2.609-5.828,5.828-5.828c3.219,0,5.828,2.609,5.828,5.828l0,0C13.834,6.407,13.483,6.757,13.051,6.757z"/>
<path fill="#FFFFFF" d="M14.887,9.452H8.814V6.757c0-0.433-0.351-0.783-0.784-0.783S7.248,6.325,7.248,6.757v2.695H1.174
	c-0.541,0-0.979,0.438-0.979,0.979l0,0v4.384c0,0.54,0.439,0.979,0.979,0.979l0,0h13.712c0.541,0,0.979-0.438,0.979-0.979l0,0
	v-4.384C15.866,9.89,15.428,9.452,14.887,9.452L14.887,9.452z M2.611,13.405c-0.434,0-0.784-0.35-0.784-0.783
	c0-0.433,0.35-0.782,0.784-0.782c0.433,0,0.783,0.35,0.783,0.782l0,0C3.395,13.056,3.044,13.405,2.611,13.405z M4.986,13.405
	c-0.433,0-0.784-0.35-0.784-0.783c0-0.433,0.352-0.782,0.784-0.782s0.783,0.35,0.783,0.782C5.769,13.056,5.418,13.405,4.986,13.405
	L4.986,13.405z"/>
</svg>
