<?xml version="1.0" encoding="utf-8"?>
<!-- Generator: Adobe Illustrator 16.0.0, SVG Export Plug-In . SVG Version: 6.00 Build 0)  -->
<!DOCTYPE svg PUBLIC "-//W3C//DTD SVG 1.1//EN" "http://www.w3.org/Graphics/SVG/1.1/DTD/svg11.dtd">
<svg version="1.1" id="图层_1" xmlns="http://www.w3.org/2000/svg" xmlns:xlink="http://www.w3.org/1999/xlink" x="0px" y="0px"
	 width="16px" height="16px" viewBox="0 0 16 16" enable-background="new 0 0 16 16" xml:space="preserve">
<path  d="M8.031,11.033c-1.693,0-3.065-1.372-3.065-3.064c0-1.693,1.372-3.065,3.065-3.065
	c1.692,0,3.064,1.372,3.064,3.065C11.096,9.661,9.724,11.033,8.031,11.033z M8.031,6.13c-1.016,0-1.839,0.823-1.839,1.839
	c0,1.015,0.823,1.839,1.839,1.839S9.87,8.983,9.87,7.969C9.87,6.953,9.047,6.13,8.031,6.13z M1.901,3.678
	c-1.016,0-1.839-0.823-1.839-1.839S0.886,0,1.901,0S3.74,0.823,3.74,1.839S2.917,3.678,1.901,3.678z M1.901,1.226
	c-0.339,0-0.613,0.274-0.613,0.613c0,0.338,0.274,0.613,0.613,0.613c0.338,0,0.613-0.275,0.613-0.613
	C2.515,1.5,2.24,1.226,1.901,1.226z M14.161,3.678c-1.016,0-1.839-0.823-1.839-1.839S13.146,0,14.161,0S16,0.823,16,1.839
	S15.177,3.678,14.161,3.678z M14.161,1.226c-0.339,0-0.613,0.274-0.613,0.613c0,0.338,0.274,0.613,0.613,0.613
	c0.338,0,0.613-0.275,0.613-0.613C14.774,1.5,14.499,1.226,14.161,1.226z M14.161,15.938c-1.016,0-1.839-0.823-1.839-1.839
	s0.823-1.839,1.839-1.839S16,13.083,16,14.099S15.177,15.938,14.161,15.938z M14.161,13.485c-0.339,0-0.613,0.274-0.613,0.613
	c0,0.338,0.274,0.613,0.613,0.613c0.338,0,0.613-0.275,0.613-0.613C14.774,13.76,14.499,13.485,14.161,13.485z M1.901,15.938
	c-1.016,0-1.839-0.823-1.839-1.839s0.823-1.839,1.839-1.839s1.839,0.823,1.839,1.839S2.917,15.938,1.901,15.938z M1.901,13.485
	c-0.339,0-0.613,0.274-0.613,0.613c0,0.338,0.274,0.613,0.613,0.613c0.338,0,0.613-0.275,0.613-0.613
	C2.515,13.76,2.24,13.485,1.901,13.485z"/>
<path  d="M12.936,13.485c-0.163,0.002-0.318-0.063-0.43-0.184l-3.064-3.066c-0.237-0.236-0.237-0.619,0-0.856
	s0.62-0.237,0.856,0l3.066,3.064c0.236,0.224,0.249,0.594,0.026,0.831c-0.009,0.01-0.019,0.02-0.026,0.027
	C13.253,13.422,13.098,13.487,12.936,13.485z M6.192,6.743c-0.163,0.002-0.319-0.064-0.43-0.184L2.699,3.494
	c-0.237-0.237-0.237-0.621,0-0.857c0.237-0.237,0.621-0.237,0.857,0l0,0L6.622,5.7C6.858,5.923,6.87,6.296,6.648,6.533
	C6.639,6.542,6.63,6.551,6.622,6.559C6.511,6.678,6.355,6.745,6.192,6.743z M3.127,13.485c-0.163,0.002-0.319-0.063-0.429-0.184
	c-0.237-0.223-0.249-0.594-0.027-0.831c0.009-0.01,0.017-0.02,0.027-0.027l3.064-3.064c0.237-0.237,0.622-0.237,0.859,0
	c0.237,0.237,0.237,0.62,0,0.856l-3.065,3.066C3.446,13.422,3.29,13.487,3.127,13.485z M9.761,6.853
	C9.599,6.85,9.443,6.784,9.332,6.669c-0.236-0.243-0.236-0.628,0-0.871l3.174-3.163c0.237-0.237,0.621-0.237,0.858,0
	c0.236,0.237,0.236,0.621,0,0.857l0,0L10.2,6.669C10.085,6.787,9.926,6.853,9.761,6.853z"/>
</svg>
