<?xml version="1.0" encoding="utf-8"?>
<!-- Generator: Adobe Illustrator 16.0.0, SVG Export Plug-In . SVG Version: 6.00 Build 0)  -->
<!DOCTYPE svg PUBLIC "-//W3C//DTD SVG 1.1//EN" "http://www.w3.org/Graphics/SVG/1.1/DTD/svg11.dtd">
<svg version="1.1" id="图层_1" xmlns="http://www.w3.org/2000/svg" xmlns:xlink="http://www.w3.org/1999/xlink" x="0px" y="0px"
	 width="16px" height="16px" viewBox="0 0 16 16" enable-background="new 0 0 16 16" xml:space="preserve">
<path fill="#FFFFFF" d="M14.678,12.521V7.108h-0.96v0.016H8.472V4.152c-0.156,0.041-0.317,0.061-0.48,0.061
	c-0.166,0-0.326-0.021-0.479-0.061v2.972H2.204V7.108h-0.96v5.426c0.151-0.044,0.308-0.067,0.465-0.067
	c0.173,0,0.339,0.027,0.496,0.076V8.084h5.309v4.455c0.156-0.048,0.317-0.072,0.48-0.072c0.162,0,0.324,0.024,0.479,0.072V8.084
	h5.246v4.476c0.174-0.061,0.357-0.093,0.544-0.093C14.405,12.467,14.545,12.485,14.678,12.521z"/>
<path fill="#FFFFFF" d="M8.472,4.152c0.82-0.213,1.425-0.958,1.425-1.844c0-1.053-0.854-1.906-1.905-1.906
	c-1.053,0-1.905,0.853-1.905,1.906c0,0.887,0.605,1.631,1.425,1.844c0.157,0.041,0.318,0.061,0.48,0.061
	C8.159,4.213,8.319,4.191,8.472,4.152z"/>
<path fill="#FFFFFF" d="M1.244,12.534c-0.678,0.199-1.173,0.828-1.173,1.571c0,0.905,0.734,1.638,1.638,1.638
	c0.905,0,1.638-0.732,1.638-1.638c0-0.731-0.48-1.352-1.142-1.563c-0.16-0.051-0.327-0.076-0.496-0.076
	C1.551,12.467,1.395,12.49,1.244,12.534z M7.513,12.539c-0.671,0.205-1.158,0.828-1.158,1.566c0,0.905,0.733,1.638,1.638,1.638
	s1.639-0.732,1.639-1.638c0-0.738-0.488-1.361-1.159-1.566c-0.155-0.048-0.317-0.072-0.48-0.072
	C7.83,12.467,7.668,12.491,7.513,12.539z M14.678,12.521c-0.136-0.036-0.277-0.055-0.416-0.055c-0.187,0-0.37,0.032-0.544,0.093
	c-0.638,0.226-1.095,0.832-1.095,1.546c0,0.905,0.733,1.638,1.639,1.638c0.903,0,1.638-0.732,1.638-1.638
	C15.899,13.345,15.38,12.705,14.678,12.521z"/>
</svg>
