<?xml version="1.0" encoding="utf-8"?>
<!-- Generator: Adobe Illustrator 16.0.0, SVG Export Plug-In . SVG Version: 6.00 Build 0)  -->
<!DOCTYPE svg PUBLIC "-//W3C//DTD SVG 1.1//EN" "http://www.w3.org/Graphics/SVG/1.1/DTD/svg11.dtd">
<svg version="1.1" id="图层_1" xmlns="http://www.w3.org/2000/svg" xmlns:xlink="http://www.w3.org/1999/xlink" x="0px" y="0px"
	 width="16px" height="16px" viewBox="0 0 16 16" enable-background="new 0 0 16 16" xml:space="preserve">
<path fill="#FFFFFF" d="M14.806,0.063H1.226c-0.624,0-1.132,0.507-1.132,1.132v13.58c0,0.624,0.508,1.132,1.132,1.132h10.468
	c0.313,0,0.566-0.253,0.566-0.565s-0.253-0.566-0.566-0.566H1.226V1.194h13.58v10.468c0,0.313,0.254,0.566,0.566,0.566
	s0.565-0.253,0.565-0.566V1.194C15.938,0.569,15.429,0.063,14.806,0.063z"/>
<path fill="#FFFFFF" d="M12.963,12.131c0.462-0.628,0.711-1.386,0.711-2.166c0-2.028-1.649-3.678-3.678-3.678
	s-3.678,1.65-3.678,3.678s1.65,3.678,3.678,3.678c0.78,0,1.538-0.249,2.166-0.711l1.961,1.961c0.22,0.221,0.576,0.222,0.797,0.002
	l0.004-0.002c0.221-0.222,0.221-0.58,0-0.801l0,0L12.963,12.131z M7.45,9.965c0-1.403,1.143-2.546,2.546-2.546
	s2.546,1.143,2.546,2.546s-1.143,2.546-2.546,2.546S7.45,11.368,7.45,9.965z M13.108,3.599c0-0.313-0.254-0.566-0.566-0.566H3.489
	c-0.313,0-0.566,0.253-0.566,0.566s0.253,0.566,0.566,0.566h9.053C12.854,4.165,13.108,3.912,13.108,3.599z M3.489,6.405
	c-0.313,0-0.566,0.253-0.566,0.565c0,0.313,0.253,0.566,0.566,0.566h1.698c0.313,0,0.566-0.253,0.566-0.566
	c0-0.313-0.253-0.565-0.566-0.565H3.489z"/>
</svg>
