<?xml version="1.0" encoding="utf-8"?>
<!-- Generator: Adobe Illustrator 16.0.0, SVG Export Plug-In . SVG Version: 6.00 Build 0)  -->
<!DOCTYPE svg PUBLIC "-//W3C//DTD SVG 1.1//EN" "http://www.w3.org/Graphics/SVG/1.1/DTD/svg11.dtd">
<svg version="1.1" id="图层_1" xmlns="http://www.w3.org/2000/svg" xmlns:xlink="http://www.w3.org/1999/xlink" x="0px" y="0px"
	 width="16px" height="16px" viewBox="0 0 16 16" enable-background="new 0 0 16 16" xml:space="preserve">
<path fill="#FFFFFF" d="M11.34,5.979h-0.003l-1.55-0.012l0.428-2.128c0.008-0.03,0.013-0.061,0.015-0.089
	c0.053-0.47-0.12-0.771-0.275-0.941L9.948,2.802C9.74,2.58,9.449,2.457,9.146,2.46h-0.01C8.929,2.467,8.727,2.523,8.544,2.623
	C8.44,2.678,8.351,2.752,8.279,2.84L3.896,8.026c-0.272,0.32-0.326,0.773-0.136,1.147L3.77,9.188
	c0.183,0.34,0.541,0.544,0.959,0.545c0.019,0,0.04,0,0.061-0.001h1.083l-0.825,2.387c-0.023,0.064-0.039,0.131-0.045,0.194
	c-0.038,0.303,0.053,0.61,0.252,0.843l0.018,0.02c0.201,0.22,0.489,0.345,0.789,0.345h0.017c0.166-0.004,0.326-0.038,0.475-0.102
	c0.129-0.049,0.244-0.131,0.336-0.229l4.982-5.272h0.068l0.193-0.296c0.219-0.335,0.251-0.735,0.085-1.07
	C12.052,6.225,11.727,6.011,11.34,5.979z M6.622,11.565l1.084-3.141H5.273l3.524-4.17L8.191,7.267l2.477,0.016L6.622,11.565z
	 M7.984,0.217c-4.3,0-7.798,3.498-7.798,7.798c0,4.301,3.498,7.799,7.798,7.799c4.301,0,7.799-3.498,7.799-7.799
	C15.783,3.715,12.285,0.217,7.984,0.217z M7.984,14.496c-3.575,0-6.481-2.907-6.481-6.48c0-3.575,2.908-6.481,6.481-6.481
	c3.574,0,6.48,2.908,6.48,6.481C14.465,11.59,11.559,14.496,7.984,14.496z"/>
</svg>
