<?xml version="1.0" encoding="utf-8"?>
<!-- Generator: Adobe Illustrator 16.0.0, SVG Export Plug-In . SVG Version: 6.00 Build 0)  -->
<!DOCTYPE svg PUBLIC "-//W3C//DTD SVG 1.1//EN" "http://www.w3.org/Graphics/SVG/1.1/DTD/svg11.dtd">
<svg version="1.1" id="图层_1" xmlns="http://www.w3.org/2000/svg" xmlns:xlink="http://www.w3.org/1999/xlink" x="0px" y="0px"
	 width="16px" height="16px" viewBox="0 0 16 16" enable-background="new 0 0 16 16" xml:space="preserve">
<path fill="#FFFFFF" d="M8.662,14.594c-0.651,0.121-1.441,0.2-2.369,0.2c-2.941,0-4.527-0.799-4.527-1.126v-2.159
	c1.083,0.563,2.846,0.829,4.527,0.829c0.744,0,1.501-0.053,2.211-0.158v-1.06c-0.622,0.104-1.357,0.173-2.211,0.173
	c-2.941,0-4.527-0.799-4.527-1.126V7.509C2.85,8.072,4.612,8.338,6.293,8.338c0.744,0,1.501-0.052,2.211-0.158V8.176
	c0.001-0.57,0.437-1.007,1.085-1.303c-0.763,0.23-1.869,0.42-3.296,0.42c-2.941,0-4.527-0.799-4.527-1.127V4.112
	c0.924,0.57,2.441,0.973,4.527,0.973c2.085,0,3.604-0.402,4.525-0.973v2.052c0,0.121-0.217,0.307-0.638,0.491
	c0.513-0.146,1.099-0.227,1.685-0.238l-0.003-3.975c-0.18-1.162-2.079-2.281-5.567-2.281c-3.524,0-5.428,1.143-5.571,2.318H0.708
	v11.305h0.007c0.149,1.409,2.959,2.054,5.579,2.054c1.193,0,2.426-0.133,3.427-0.412C9.241,15.222,8.861,14.944,8.662,14.594z
	 M6.295,1.207c2.721,0,4.525,0.852,4.525,1.417S9.016,4.04,6.295,4.04c-2.722,0-4.527-0.854-4.527-1.417
	C1.768,2.06,3.573,1.207,6.295,1.207z"/>
<path fill="#FFFFFF" d="M15.526,8.173c-0.004-1.154-1.769-1.759-3.512-1.759c-1.744,0-3.505,0.604-3.51,1.759v5.845
	c0,1.194,1.766,1.819,3.512,1.819s3.511-0.625,3.511-1.819L15.526,8.173z M14.468,14.019c0,0.225-0.857,0.775-2.451,0.775
	c-1.592,0-2.452-0.551-2.452-0.775v-1.597c0.664,0.31,1.561,0.467,2.452,0.467s1.788-0.157,2.451-0.467V14.019z M14.468,11.13
	c0,0.176-0.869,0.712-2.451,0.712c-1.583,0-2.452-0.536-2.452-0.712V9.47c0.664,0.309,1.561,0.468,2.452,0.468
	s1.788-0.159,2.451-0.468V11.13z M12.015,8.894c-1.582,0-2.451-0.537-2.451-0.716c0-0.178,0.869-0.715,2.451-0.715
	c1.583,0,2.452,0.538,2.452,0.715C14.468,8.354,13.599,8.894,12.015,8.894z"/>
</svg>
