<?xml version="1.0" standalone="no"?><!DOCTYPE svg PUBLIC "-//W3C//DTD SVG 1.1//EN" "http://www.w3.org/Graphics/SVG/1.1/DTD/svg11.dtd"><svg t="1569400373792" class="icon" viewBox="0 0 1024 1024" version="1.1" xmlns="http://www.w3.org/2000/svg" p-id="44443" xmlns:xlink="http://www.w3.org/1999/xlink" width="16" height="16"><defs><style type="text/css"></style></defs><path d="M204.428813 249.63367a383.850133 383.850133 0 0 0 189.527202 595.309802A128.205817 128.205817 0 0 1 479.57576 771.281078v-70.593128a191.829152 191.829152 0 0 1-124.369233-300.340509L204.428813 249.63367z m-80.568244 6.07459a127.886101 127.886101 0 1 1 131.083254-142.912719A445.555177 445.555177 0 0 1 511.547286 31.971525c95.466975 0 183.964157 29.925348 256.667405 80.824016A127.886101 127.886101 0 1 1 899.234002 255.772203a447.793184 447.793184 0 0 1-260.503988 653.11432 127.886101 127.886101 0 0 1-254.365456 0A447.793184 447.793184 0 0 1 123.860569 255.772203z m123.090373-53.967935l153.463322 153.463322C431.746358 332.823579 470.112189 319.715254 511.547286 319.715254c41.435097 0 79.800927 13.108325 111.133022 35.488393l153.463322-153.463322A382.379443 382.379443 0 0 0 511.547286 95.914576a382.379443 382.379443 0 0 0-264.596344 105.825749z m571.714816 47.893345l-150.777713 150.777714A191.829152 191.829152 0 0 1 543.518811 700.751893v70.593128a128.205817 128.205817 0 0 1 85.683688 73.534508 383.850133 383.850133 0 0 0 189.463259-595.309802zM511.547286 639.430507a127.886101 127.886101 0 1 0 0-255.772203 127.886101 127.886101 0 0 0 0 255.772203zM127.888981 191.829152a63.943051 63.943051 0 1 0 0-127.886101 63.943051 63.943051 0 0 0 0 127.886101z m767.316609 0a63.943051 63.943051 0 1 0 0-127.886101 63.943051 63.943051 0 0 0 0 127.886101zM511.547286 959.145761a63.943051 63.943051 0 1 0 0-127.886102 63.943051 63.943051 0 0 0 0 127.886102z" p-id="44444" fill="#ffffff"></path></svg>