<?xml version="1.0" encoding="utf-8"?>
<!-- Generator: Adobe Illustrator 16.0.0, SVG Export Plug-In . SVG Version: 6.00 Build 0)  -->
<!DOCTYPE svg PUBLIC "-//W3C//DTD SVG 1.1//EN" "http://www.w3.org/Graphics/SVG/1.1/DTD/svg11.dtd">
<svg version="1.1" id="图层_1" xmlns="http://www.w3.org/2000/svg" xmlns:xlink="http://www.w3.org/1999/xlink" x="0px" y="0px"
	 width="16px" height="16px" viewBox="0 0 16 16" enable-background="new 0 0 16 16" xml:space="preserve">
<path fill="#FFFFFF" d="M0,0.004h16v1.329H0V0.004z M14.647,1.353H16v14.64h-1.353V1.353z"/>
<path fill="#FFFFFF" d="M0,14.663h16v1.33H0V14.663z M0,12.008h1.334v2.655H0V12.008z M0,1.333h1.335v2.67H0V1.333z M0.014,5.332
	h2.653v1.342H0.014V5.332z M0,9.337h2.675v1.327H0V9.337z M9.62,4.024L8.019,5.96L6.475,4.024H4.607l1.924,2.287H4.607v1.211h2.57
	v1.124h-2.57v1.157h2.57v2.206h1.629V9.804h2.623V8.646H8.807V7.522h2.623V6.311H9.503l1.927-2.287H9.62L9.62,4.024z M0.014,7.357
	h2.653v1.34H0.014V7.357z"/>
</svg>
