<?xml version="1.0" encoding="utf-8"?>
<!-- Generator: Adobe Illustrator 16.0.0, SVG Export Plug-In . SVG Version: 6.00 Build 0)  -->
<!DOCTYPE svg PUBLIC "-//W3C//DTD SVG 1.1//EN" "http://www.w3.org/Graphics/SVG/1.1/DTD/svg11.dtd">
<svg version="1.1" id="图层_1" xmlns="http://www.w3.org/2000/svg" xmlns:xlink="http://www.w3.org/1999/xlink" x="0px" y="0px"
	 width="16px" height="16px" viewBox="0 0 16 16" enable-background="new 0 0 16 16" xml:space="preserve">
<path fill="#FFFFFF" d="M8.024,15.933c-1.544,0-2.997-0.601-4.089-1.692c-1.092-1.093-1.693-2.546-1.693-4.09
	c0-1.32,0.952-3.398,2.831-6.179c1.388-2.055,2.794-3.754,2.81-3.772c0.035-0.042,0.086-0.065,0.141-0.065
	c0.055,0,0.107,0.023,0.142,0.065C8.18,0.216,9.587,1.915,10.977,3.97c1.879,2.779,2.832,4.859,2.832,6.179
	c0,1.544-0.603,2.997-1.694,4.088C11.023,15.329,9.568,15.933,8.024,15.933z M8.024,0.607C7.635,1.089,6.498,2.516,5.375,4.178
	c-1.809,2.678-2.767,4.743-2.767,5.969c0,2.985,2.428,5.416,5.416,5.416s5.417-2.429,5.417-5.416
	C13.441,7.43,8.891,1.68,8.024,0.607z"/>
<path fill="#FFFFFF" d="M8.256,14.63C8.254,14.63,8.254,14.63,8.256,14.63c-1.177-0.01-2.311-0.438-3.197-1.208
	c-0.877-0.764-1.458-1.813-1.637-2.955c-0.016-0.102,0.054-0.194,0.153-0.209c0.101-0.015,0.194,0.053,0.209,0.153
	c0.345,2.215,2.226,3.834,4.471,3.851c0.1,0,0.184,0.084,0.182,0.186C8.438,14.549,8.355,14.63,8.256,14.63z"/>
</svg>
