<?xml version="1.0" encoding="utf-8"?>
<!-- Generator: Adobe Illustrator 16.0.0, SVG Export Plug-In . SVG Version: 6.00 Build 0)  -->
<!DOCTYPE svg PUBLIC "-//W3C//DTD SVG 1.1//EN" "http://www.w3.org/Graphics/SVG/1.1/DTD/svg11.dtd">
<svg version="1.1" id="图层_1" xmlns="http://www.w3.org/2000/svg" xmlns:xlink="http://www.w3.org/1999/xlink" x="0px" y="0px"
	 width="16px" height="16px" viewBox="0 0 16 16" enable-background="new 0 0 16 16" xml:space="preserve">
<path fill="#FFFFFF" d="M14.303,15.75H13.52v-1.362c-3.268-2.349-7.67-2.349-10.938,0v1.362H1.799v-1.758l0.156-0.117
	c3.612-2.709,8.579-2.709,12.191,0l0.156,0.117V15.75z M8.051,5.201c0.862,0,1.563,0.7,1.563,1.563c0,0.863-0.701,1.563-1.563,1.563
	c-0.863,0-1.563-0.7-1.563-1.563C6.488,5.901,7.188,5.201,8.051,5.201L8.051,5.201 M8.051,4.42c-1.294,0-2.344,1.05-2.344,2.344
	s1.05,2.344,2.344,2.344c1.295,0,2.344-1.049,2.344-2.344S9.346,4.42,8.051,4.42z"/>
<path fill="#FFFFFF" d="M8.051,0.904c2.589,0,4.688,2.099,4.688,4.688s-2.1,4.689-4.688,4.689c-2.589,0-4.688-2.1-4.688-4.689
	S5.461,0.904,8.051,0.904 M8.051,0.123c-3.021,0-5.47,2.449-5.47,5.47c0,3.021,2.449,5.469,5.47,5.469
	c3.021,0,5.469-2.448,5.469-5.469l0,0C13.52,2.572,11.072,0.123,8.051,0.123z"/>
<path fill="#FFFFFF" d="M4.925,9.89h0.781v2.735H4.925V9.89z M10.395,9.89h0.781v2.735h-0.781V9.89z"/>
</svg>
