<?xml version="1.0" standalone="no"?><!DOCTYPE svg PUBLIC "-//W3C//DTD SVG 1.1//EN" "http://www.w3.org/Graphics/SVG/1.1/DTD/svg11.dtd"><svg t="1578470367566" class="icon" viewBox="0 0 1024 1024" version="1.1" xmlns="http://www.w3.org/2000/svg" p-id="3069" xmlns:xlink="http://www.w3.org/1999/xlink" width="200" height="200"><defs><style type="text/css"></style></defs><path d="M511.897672 425.481363c-28.24263 0-52.187469 23.84251-52.187469 52.08514l0 136.096732c0 29.368242 23.944839 51.47117 52.187469 51.47117 29.368242 0 51.47117-22.102928 51.47117-51.47117l0-136.096732C563.368842 449.323873 541.265914 425.481363 511.897672 425.481363L511.897672 425.481363zM511.897672 687.135005 511.897672 687.135005c-28.24263 0-52.187469 22.102928-52.187469 50.8572 0 28.8566 23.944839 52.187469 52.187469 52.187469 29.368242 0 51.47117-23.330868 51.47117-52.187469C563.368842 709.237933 541.265914 687.135005 511.897672 687.135005L511.897672 687.135005zM754.006595 484.934146 754.006595 484.934146 754.006595 484.934146 557.22914 144.692315c-4.911762-7.981613-11.051464-14.735285-19.544719-19.647047-24.558809-13.405016-56.382932-5.525732-69.890277 19.647047L271.630659 482.989907l-1.841911 1.944239L74.239233 823.129409c-4.911762 9.311882-8.595583 19.647047-8.595583 29.470571 0 29.368242 23.330868 52.699111 51.47117 52.699111l789.565704 0 0-0.61397c8.595583 0 18.419107-1.739582 25.786749-7.981613 24.45648-12.279404 33.052064-45.22914 19.544719-68.662336L754.006595 484.934146 754.006595 484.934146zM154.873988 846.767263 154.873988 846.767263l357.22834-618.779654 357.023683 618.779654L154.873988 846.767263 154.873988 846.767263z" p-id="3070" fill="#ffffff"></path></svg>