<?xml version="1.0" encoding="utf-8"?>
<!-- Generator: Adobe Illustrator 16.0.0, SVG Export Plug-In . SVG Version: 6.00 Build 0)  -->
<!DOCTYPE svg PUBLIC "-//W3C//DTD SVG 1.1//EN" "http://www.w3.org/Graphics/SVG/1.1/DTD/svg11.dtd">
<svg version="1.1" id="图层_1" xmlns="http://www.w3.org/2000/svg" xmlns:xlink="http://www.w3.org/1999/xlink" x="0px" y="0px"
	 width="16px" height="16px" viewBox="0 0 16 16" enable-background="new 0 0 16 16" xml:space="preserve">
<path  d="M7.146,10.696c-0.235,0.002-0.463-0.091-0.63-0.256L4.743,8.665C4.424,8.293,4.467,7.732,4.84,7.415
	c0.332-0.286,0.821-0.286,1.153,0l1.145,1.144l2.919-2.918c0.37-0.319,0.932-0.276,1.251,0.097c0.284,0.332,0.284,0.822,0,1.153
	l-3.548,3.55C7.595,10.601,7.375,10.693,7.146,10.696z M8.033,16.018c-0.096,0-0.192-0.014-0.284-0.045
	c-0.275-0.097-6.812-2.411-6.812-8.824V3.778c0-0.346,0.2-0.661,0.514-0.807l6.209-2.838c0.234-0.106,0.502-0.106,0.736,0
	l6.208,2.838c0.315,0.146,0.516,0.461,0.515,0.807v3.371c0,6.439-6.536,8.728-6.813,8.824C8.219,16.003,8.126,16.018,8.033,16.018z
	 M2.711,4.345v2.803c0,4.515,4.169,6.555,5.322,7.033c1.153-0.479,5.322-2.491,5.322-7.033V4.345L8.033,1.915L2.711,4.345z"/>
</svg>
