<?xml version="1.0" encoding="utf-8"?>
<!-- Generator: Adobe Illustrator 16.0.0, SVG Export Plug-In . SVG Version: 6.00 Build 0)  -->
<!DOCTYPE svg PUBLIC "-//W3C//DTD SVG 1.1//EN" "http://www.w3.org/Graphics/SVG/1.1/DTD/svg11.dtd">
<svg version="1.1" id="图层_1" xmlns="http://www.w3.org/2000/svg" xmlns:xlink="http://www.w3.org/1999/xlink" x="0px" y="0px"
	 width="16px" height="16px" viewBox="0 0 16 16" enable-background="new 0 0 16 16" xml:space="preserve">
<path fill="#FFFFFF" d="M13.451,16.04H2.577c-0.34,0-0.662-0.181-0.852-0.48c-0.19-0.311-0.21-0.681-0.05-0.992L5.08,7.77
	c0.101-0.2,0.271-0.36,0.47-0.45V0.37c0-0.11,0.041-0.21,0.121-0.28c0.081-0.08,0.181-0.121,0.28-0.121h4.006
	c0.22,0,0.399,0.18,0.399,0.401l0.01,6.909c0.251,0.08,0.461,0.24,0.571,0.48l3.404,6.818c0.16,0.312,0.14,0.682-0.051,0.982
	C14.111,15.859,13.801,16.04,13.451,16.04z M5.981,8.03c-0.081,0-0.15,0.039-0.181,0.1l-3.404,6.8c-0.05,0.099,0,0.189,0.01,0.22
	c0.02,0.039,0.07,0.1,0.16,0.1H13.44c0.09,0,0.15-0.061,0.171-0.1c0.02-0.03,0.06-0.111,0.009-0.21L10.217,8.12
	c-0.04-0.07-0.131-0.09-0.182-0.09H9.957c-0.221,0-0.4-0.181-0.4-0.401V0.771H6.351l0.01,6.729c0.01,0.04,0.021,0.08,0.021,0.13
	C6.381,7.85,6.201,8.03,5.981,8.03z"/>
<path fill="#FFFFFF" d="M11.008,0.771H5c-0.22,0-0.401-0.18-0.401-0.4c0-0.221,0.181-0.401,0.401-0.401h6.008
	c0.221,0,0.4,0.18,0.4,0.401C11.408,0.59,11.229,0.771,11.008,0.771z M11.498,13.828c-0.149,0-0.291-0.081-0.36-0.222l-1.803-3.573
	c-0.1-0.201-0.021-0.44,0.181-0.542c0.2-0.101,0.441-0.02,0.541,0.18l1.803,3.576c0.1,0.199,0.018,0.44-0.181,0.54
	C11.619,13.808,11.558,13.828,11.498,13.828z"/>
</svg>
