<svg t="1571970745582" class="icon" viewBox="0 0 1024 1024" version="1.1" xmlns="http://www.w3.org/2000/svg" p-id="10752" width="200" height="200"><path d="M342.272 256a42.666667 42.666667 0 1 1 0-85.333333h339.456a42.666667 42.666667 0 0 1 0 85.333333H342.272z m470.784 0a42.666667 42.666667 0 0 1 0-85.333333H938.666667a85.333333 85.333333 0 0 1 85.333333 85.333333v640a85.333333 85.333333 0 0 1-85.333333 85.333333H85.333333a85.333333 85.333333 0 0 1-85.333333-85.333333V256a85.333333 85.333333 0 0 1 85.333333-85.333333h128.725334a42.666667 42.666667 0 1 1 0 85.333333H85.333333v640h853.333334V256h-125.610667z" p-id="10753"></path><path d="M298.666667 128a42.666667 42.666667 0 1 1 85.333333 0v170.666667a42.666667 42.666667 0 1 1-85.333333 0V128z m341.333333 0a42.666667 42.666667 0 0 1 85.333333 0v170.666667a42.666667 42.666667 0 0 1-85.333333 0V128zM259.072 556.032a42.666667 42.666667 0 0 1 0-85.333333h85.333333a42.666667 42.666667 0 1 1 0 85.333333h-85.333333zM469.333333 554.666667a42.666667 42.666667 0 0 1 0-85.333334h85.333334a42.666667 42.666667 0 0 1 0 85.333334h-85.333334z m213.333334 0a42.666667 42.666667 0 0 1 0-85.333334h85.333333a42.666667 42.666667 0 0 1 0 85.333334h-85.333333z m-423.594667 214.698666a42.666667 42.666667 0 0 1 0-85.333333h85.333333a42.666667 42.666667 0 0 1 0 85.333333h-85.333333zM469.333333 768a42.666667 42.666667 0 0 1 0-85.333333h85.333334a42.666667 42.666667 0 0 1 0 85.333333h-85.333334z m213.333334 0a42.666667 42.666667 0 0 1 0-85.333333h85.333333a42.666667 42.666667 0 0 1 0 85.333333h-85.333333z" p-id="10754"></path></svg>