<?xml version="1.0" encoding="utf-8"?>
<!-- Generator: Adobe Illustrator 16.0.0, SVG Export Plug-In . SVG Version: 6.00 Build 0)  -->
<!DOCTYPE svg PUBLIC "-//W3C//DTD SVG 1.1//EN" "http://www.w3.org/Graphics/SVG/1.1/DTD/svg11.dtd">
<svg version="1.1" id="图层_1" xmlns="http://www.w3.org/2000/svg" xmlns:xlink="http://www.w3.org/1999/xlink" x="0px" y="0px"
	 width="16px" height="16px" viewBox="0 0 16 16" enable-background="new 0 0 16 16" xml:space="preserve">
<path fill="#FFFFFF" d="M12.244,5.273h1.022v1.724l2.609-3.032l-2.609-2.966v1.968h-1.021c-2.928,0-4.836,2.255-6.295,4.245
	c-1.309,1.789-2.441,3.476-4.267,3.476H0.056v2.308h1.627c2.927,0,4.579-2.398,6.038-4.389C9.029,6.819,10.414,5.273,12.244,5.273
	L12.244,5.273z M4.312,6.593l0.379-0.514c0.311-0.422,0.636-0.871,0.99-1.315C4.633,3.746,3.371,2.996,1.683,2.996H0.056v2.307
	c0,0,0.438-0.022,1.627,0C2.833,5.328,3.555,5.816,4.312,6.593L4.312,6.593z M13.267,10.776h-1.021
	c-1.114,0-2.228-0.646-3.025-1.503c-0.078,0.11-0.159,0.22-0.24,0.328c-0.351,0.479-0.725,0.991-1.139,1.499
	c1.076,1.089,2.635,1.982,4.405,1.982h1.021v1.979l2.609-3.036l-2.609-2.961V10.776L13.267,10.776z"/>
</svg>
