<?xml version="1.0" encoding="utf-8"?>
<!-- Generator: Adobe Illustrator 16.0.0, SVG Export Plug-In . SVG Version: 6.00 Build 0)  -->
<!DOCTYPE svg PUBLIC "-//W3C//DTD SVG 1.1//EN" "http://www.w3.org/Graphics/SVG/1.1/DTD/svg11.dtd">
<svg version="1.1" id="图层_1" xmlns="http://www.w3.org/2000/svg" xmlns:xlink="http://www.w3.org/1999/xlink" x="0px" y="0px"
	 width="16px" height="16px" viewBox="0 0 16 16" enable-background="new 0 0 16 16" xml:space="preserve">
<path fill="#FFFFFF" d="M8.019,13.236c-1.48,0-2.644-1.163-2.644-2.644s1.164-2.644,2.644-2.644s2.644,1.164,2.644,2.644
	S9.499,13.236,8.019,13.236z M8.019,9.007c-0.899,0-1.586,0.688-1.586,1.586s0.688,1.586,1.586,1.586
	c0.898,0,1.586-0.688,1.586-1.586S8.917,9.007,8.019,9.007z"/>
<path fill="#FFFFFF" d="M14.086,3.8l0.747,0.747L9.897,9.483L9.148,8.735L14.086,3.8z M0.351,12.497
	c-0.159-0.635-0.264-1.27-0.264-1.904c0-4.389,3.543-7.932,7.932-7.932c1.427,0,2.855,0.37,4.071,1.11L11.562,4.67
	c-1.058-0.635-2.273-0.952-3.543-0.952c-3.808,0-6.875,3.066-6.875,6.875c0,0.528,0.053,1.111,0.212,1.693L0.351,12.497z
	 M15.687,12.497l-1.005-0.265c0.159-0.528,0.211-1.111,0.211-1.64c0-1.217-0.316-2.38-0.898-3.437l0.898-0.529
	c0.688,1.216,1.059,2.592,1.059,3.966C15.951,11.228,15.846,11.862,15.687,12.497z"/>
</svg>
