<?xml version="1.0" encoding="utf-8"?>
<!-- Generator: Adobe Illustrator 16.0.0, SVG Export Plug-In . SVG Version: 6.00 Build 0)  -->
<!DOCTYPE svg PUBLIC "-//W3C//DTD SVG 1.1//EN" "http://www.w3.org/Graphics/SVG/1.1/DTD/svg11.dtd">
<svg version="1.1" id="图层_1" xmlns="http://www.w3.org/2000/svg" xmlns:xlink="http://www.w3.org/1999/xlink" x="0px" y="0px"
	 width="16px" height="16px" viewBox="0 0 16 16" enable-background="new 0 0 16 16" xml:space="preserve">
<path fill="#FFFFFF" d="M4.773,10.962c-0.245,0.244-0.612,0.185-0.857-0.062c-0.244-0.245-0.184-0.611,0.061-0.856
	c0.734-0.672,1.591-0.856,2.386-0.429c0.306,0.124,0.551,0.306,0.734,0.612c0.061,0.062,0.061,0.062,0.123,0.184
	c0.244,0.306,0.366,0.367,0.856,0.306c0.184,0,0.367-0.184,0.795-0.612l0.122-0.121c1.162-1.286,2.141-1.592,3.672-0.368
	c0.244,0.184,0.306,0.612,0.122,0.856c-0.184,0.245-0.612,0.307-0.856,0.124c-0.919-0.735-1.224-0.675-2.021,0.243L9.79,10.962
	c-0.612,0.674-0.979,0.918-1.591,0.979c-0.918,0.062-1.407-0.185-1.896-0.735L6.18,11.084c-0.122-0.122-0.245-0.245-0.366-0.306
	C5.508,10.533,5.14,10.596,4.773,10.962z"/>
<path fill="#FFFFFF" d="M5.568,0.378C5.875,0.256,6.241,0.44,6.364,0.745c0.123,0.306-0.061,0.673-0.367,0.795
	C3.182,2.397,1.286,4.967,1.286,7.903c0,3.732,2.999,6.729,6.73,6.729c3.732,0,6.729-2.997,6.729-6.729
	c0-2.937-1.896-5.506-4.711-6.424C9.729,1.357,9.545,1.051,9.666,0.684c0.124-0.367,0.43-0.428,0.796-0.367
	c3.244,1.04,5.507,4.1,5.507,7.586c0,4.404-3.549,7.953-7.953,7.953c-4.405,0-7.953-3.549-7.953-7.953
	C0.063,4.477,2.326,1.418,5.568,0.378z"/>
</svg>
