<?xml version="1.0" encoding="utf-8"?>
<!-- Generator: Adobe Illustrator 16.0.0, SVG Export Plug-In . SVG Version: 6.00 Build 0)  -->
<!DOCTYPE svg PUBLIC "-//W3C//DTD SVG 1.1//EN" "http://www.w3.org/Graphics/SVG/1.1/DTD/svg11.dtd">
<svg version="1.1" id="图层_1" xmlns="http://www.w3.org/2000/svg" xmlns:xlink="http://www.w3.org/1999/xlink" x="0px" y="0px"
	 width="16px" height="16px" viewBox="0 0 16 16" enable-background="new 0 0 16 16" xml:space="preserve">
<path fill="#FFFFFF" d="M5.583,3.966c-0.298,0.298-0.298,0.79,0,1.089l1.893,1.893c0.298,0.298,0.79,0.298,1.089,0l1.892-1.893
	c0.299-0.299,0.299-0.791,0-1.089c-0.298-0.299-0.789-0.299-1.089,0L8.79,4.543V1.044c0-0.423-0.347-0.77-0.771-0.77
	c-0.423,0-0.77,0.347-0.77,0.77v3.499L6.672,3.966C6.371,3.667,5.882,3.667,5.583,3.966z"/>
<path fill="#FFFFFF" d="M15.074,1.356H9.697v0.891h5.254v8.748H1.088V2.247h5.253V1.356H0.966c-0.492,0-0.896,0.404-0.896,0.895
	v9.93c0,0.491,0.404,0.896,0.896,0.896h4.708v1.336L4.666,15.42c0,0-0.11,0.221,0.165,0.221h6.377c0.275,0,0.164-0.221,0.164-0.221
	l-1.008-1.008v-1.336h4.71c0.491,0,0.895-0.404,0.895-0.896v-9.93C15.969,1.76,15.565,1.356,15.074,1.356z"/>
</svg>
