<?xml version="1.0" encoding="utf-8"?>
<!-- Generator: Adobe Illustrator 16.0.0, SVG Export Plug-In . SVG Version: 6.00 Build 0)  -->
<!DOCTYPE svg PUBLIC "-//W3C//DTD SVG 1.1//EN" "http://www.w3.org/Graphics/SVG/1.1/DTD/svg11.dtd">
<svg version="1.1" id="图层_1" xmlns="http://www.w3.org/2000/svg" xmlns:xlink="http://www.w3.org/1999/xlink" x="0px" y="0px"
	 width="16px" height="16px" viewBox="0 0 16 16" enable-background="new 0 0 16 16" xml:space="preserve">
<path fill="#FFFFFF" d="M10.349,7.865C9.852,8.354,9.095,8.466,8.479,8.14l-2.628,2.602c-0.168,0.176-0.448,0.182-0.625,0.013
	c-0.004-0.004-0.009-0.009-0.014-0.013c-0.177-0.169-0.183-0.45-0.014-0.626c0.004-0.006,0.009-0.01,0.014-0.015l2.615-2.618
	c-0.318-0.61-0.243-1.369,0.275-1.873C8.407,5.307,8.8,5.154,9.195,5.154c-0.423,0.441-0.411,1.14,0.017,1.581
	c0.44,0.441,1.14,0.441,1.581,0.017C10.788,7.167,10.654,7.56,10.349,7.865z M11.077,5.886c-0.104,0.124-0.305,0.289-0.563,0.534
	c-0.288,0.288-0.684,0.288-0.958,0c-0.287-0.289-0.287-0.686,0-0.958c0.242-0.259,0.53-0.577,0.518-0.577
	c-0.773-0.363-1.693-0.2-2.294,0.408C7.217,5.856,7.051,6.679,7.292,7.395L4.894,9.78c-0.348,0.355-0.348,0.924,0,1.28
	c0.348,0.351,0.928,0.351,1.292,0l2.4-2.403c0.734,0.25,1.548,0.062,2.097-0.487C11.29,7.56,11.413,6.646,11.077,5.886z"/>
<path fill="#FFFFFF" d="M15.786,6.646c-0.029-0.149-0.141-0.267-0.288-0.303c-0.823-0.188-1.527-0.715-1.943-1.451
	c-0.422-0.738-0.519-1.618-0.269-2.43c0.043-0.146-0.001-0.303-0.115-0.402c-0.756-0.665-1.634-1.178-2.585-1.513
	c-0.141-0.051-0.298-0.011-0.4,0.099C9.621,1.27,8.817,1.626,7.976,1.625C7.134,1.626,6.332,1.271,5.767,0.647
	c-0.102-0.111-0.26-0.15-0.402-0.1C4.414,0.882,3.537,1.395,2.78,2.061c-0.113,0.1-0.158,0.257-0.114,0.402
	c0.25,0.812,0.152,1.691-0.27,2.429c-0.414,0.736-1.12,1.264-1.943,1.451c-0.148,0.035-0.26,0.154-0.287,0.303
	c-0.096,0.51-0.144,1.02-0.144,1.51c0,0.492,0.048,1.002,0.144,1.511c0.027,0.148,0.14,0.268,0.287,0.303
	c0.823,0.188,1.529,0.716,1.943,1.452c0.421,0.738,0.519,1.616,0.27,2.43c-0.044,0.146,0,0.302,0.114,0.403
	c0.757,0.663,1.634,1.177,2.584,1.512c0.141,0.05,0.299,0.01,0.401-0.1c0.565-0.622,1.368-0.979,2.21-0.978
	c0.846,0,1.63,0.348,2.21,0.978c0.102,0.109,0.259,0.151,0.4,0.102c0.951-0.335,1.827-0.85,2.585-1.514
	c0.111-0.101,0.157-0.257,0.114-0.402c-0.251-0.812-0.152-1.692,0.27-2.43c0.415-0.736,1.12-1.263,1.943-1.451
	c0.146-0.033,0.259-0.152,0.288-0.303c0.095-0.51,0.142-1.02,0.142-1.51C15.928,7.666,15.881,7.157,15.786,6.646z M15.081,9.287
	c-0.923,0.285-1.703,0.912-2.183,1.751c-0.477,0.847-0.621,1.841-0.403,2.788c-0.583,0.477-1.235,0.86-1.937,1.133
	c-0.693-0.67-1.62-1.043-2.583-1.039c-0.962,0.003-1.886,0.375-2.583,1.039c-0.701-0.272-1.354-0.656-1.935-1.133
	c0.224-0.947,0.08-1.943-0.404-2.788c-0.48-0.839-1.261-1.466-2.185-1.751C0.811,8.915,0.78,8.536,0.78,8.157
	c0-0.369,0.03-0.749,0.09-1.133c0.923-0.284,1.703-0.91,2.182-1.75c0.478-0.846,0.622-1.84,0.404-2.788
	c0.581-0.478,1.235-0.86,1.937-1.133c0.696,0.665,1.621,1.037,2.583,1.04c0.964,0.002,1.892-0.37,2.585-1.039
	c0.701,0.273,1.352,0.654,1.936,1.133c-0.219,0.948-0.073,1.942,0.402,2.789c0.479,0.839,1.26,1.464,2.183,1.749
	c0.062,0.384,0.092,0.765,0.092,1.133C15.172,8.536,15.141,8.915,15.081,9.287z"/>
</svg>
