<?xml version="1.0" encoding="utf-8"?>
<!-- Generator: Adobe Illustrator 16.0.0, SVG Export Plug-In . SVG Version: 6.00 Build 0)  -->
<!DOCTYPE svg PUBLIC "-//W3C//DTD SVG 1.1//EN" "http://www.w3.org/Graphics/SVG/1.1/DTD/svg11.dtd">
<svg version="1.1" id="图层_1" xmlns="http://www.w3.org/2000/svg" xmlns:xlink="http://www.w3.org/1999/xlink" x="0px" y="0px"
	 width="16px" height="16px" viewBox="0 0 16 16" enable-background="new 0 0 16 16" xml:space="preserve">
<path fill="#FFFFFF" d="M13.434,5.479c-0.368,0.32-0.908,0.302-1.206-0.041c-0.297-0.342-0.239-0.88,0.129-1.2
	c0.368-0.321,0.908-0.303,1.205,0.04C13.859,4.622,13.802,5.159,13.434,5.479 M15.69,4.035l-2.667-3.071
	c-0.454-0.522-1.243-0.579-1.765-0.126L7.533,4.079l0.781,0.899l1.104,1.271c0.146,0.167,0.128,0.434-0.048,0.587L9.34,6.862
	C9.163,7.016,8.901,7,8.752,6.829L7.648,5.558L6.867,4.66L5.533,5.819l0.622,0.716l0.72,0.829C7.03,7.542,7.007,7.803,6.832,7.956
	L6.8,7.982C6.625,8.136,6.36,8.118,6.208,7.943l-0.72-0.829L4.867,6.398l-1.334,1.16l0.781,0.9l1.104,1.27
	c0.146,0.168,0.127,0.436-0.049,0.588l-0.031,0.025c-0.176,0.155-0.438,0.14-0.587-0.032L3.646,9.038L2.865,8.139L0.474,10.22
	c-0.521,0.452-0.575,1.242-0.122,1.763l2.668,3.072c0.453,0.521,1.242,0.578,1.763,0.125l10.785-9.381
	C16.09,5.346,16.145,4.556,15.69,4.035"/>
</svg>
