<?xml version="1.0" encoding="utf-8"?>
<!-- Generator: Adobe Illustrator 16.0.0, SVG Export Plug-In . SVG Version: 6.00 Build 0)  -->
<!DOCTYPE svg PUBLIC "-//W3C//DTD SVG 1.1//EN" "http://www.w3.org/Graphics/SVG/1.1/DTD/svg11.dtd">
<svg version="1.1" id="图层_1" xmlns="http://www.w3.org/2000/svg" xmlns:xlink="http://www.w3.org/1999/xlink" x="0px" y="0px"
	 width="16px" height="16px" viewBox="0 0 16 16" enable-background="new 0 0 16 16" xml:space="preserve">
<path fill="#FFFFFF" d="M5.058,7.89L2.632,6.52C2.438,6.408,2.191,6.467,2.066,6.652c-0.111,0.176-0.059,0.409,0.118,0.52
	C2.191,7.177,2.2,7.181,2.207,7.185l2.426,1.372c0.194,0.111,0.441,0.053,0.566-0.133c0.111-0.177,0.058-0.41-0.118-0.521
	C5.074,7.899,5.065,7.895,5.058,7.89z"/>
<path fill="#FFFFFF" d="M15.521,6.006c-0.229,0-0.415,0.174-0.415,0.389v4.801l-6.936,3.69v-6.8c0-0.03-0.012-0.056-0.018-0.084
	l7.085-3.784c0.188-0.093,0.264-0.32,0.17-0.507c-0.04-0.08-0.105-0.143-0.187-0.178L7.942,0.105c-0.117-0.055-0.253-0.055-0.369,0
	L0.294,3.534c-0.169,0.077-0.255,0.269-0.2,0.447C0.078,4.021,0.068,4.065,0.067,4.11v7.314c0,0.138,0.076,0.263,0.199,0.333
	l7.277,4.129h0.003c0.005,0.003,0.011,0.003,0.016,0.006c0.051,0.025,0.107,0.041,0.164,0.045c0.02,0.001,0.038-0.003,0.057-0.003
	c0.049-0.004,0.097-0.015,0.143-0.034c0.012-0.005,0.022-0.003,0.033-0.009l7.766-4.129c0.125-0.064,0.207-0.195,0.209-0.339V6.396
	C15.933,6.181,15.748,6.006,15.521,6.006z M7.344,14.865l-6.453-3.662V4.547l6.471,3.455C7.355,8.03,7.344,8.057,7.344,8.086V14.865
	z M14.156,3.902L7.757,7.319l-6.4-3.417l6.399-3.015L14.156,3.902z"/>
</svg>
