<?xml version="1.0" encoding="utf-8"?>
<!-- Generator: Adobe Illustrator 16.0.0, SVG Export Plug-In . SVG Version: 6.00 Build 0)  -->
<!DOCTYPE svg PUBLIC "-//W3C//DTD SVG 1.1//EN" "http://www.w3.org/Graphics/SVG/1.1/DTD/svg11.dtd">
<svg version="1.1" id="图层_1" xmlns="http://www.w3.org/2000/svg" xmlns:xlink="http://www.w3.org/1999/xlink" x="0px" y="0px"
	 width="16px" height="16px" viewBox="0 0 16 16" enable-background="new 0 0 16 16" xml:space="preserve">
<path fill="#FFFFFF" d="M5.814,7.961c0,0.536,0.434,0.969,0.97,0.969c0.536,0,0.97-0.434,0.97-0.969s-0.434-0.97-0.97-0.97
	C6.249,6.991,5.814,7.426,5.814,7.961z M7.183,7.961c0,0.221-0.179,0.4-0.4,0.4c-0.221,0-0.399-0.18-0.399-0.4
	c0-0.221,0.18-0.4,0.4-0.4C7.005,7.561,7.183,7.74,7.183,7.961z M8.109,5.72c0,0.536,0.434,0.97,0.969,0.97
	c0.537,0,0.97-0.435,0.97-0.97s-0.433-0.97-0.97-0.97C8.543,4.75,8.109,5.184,8.109,5.72z M9.479,5.72c0,0.221-0.18,0.4-0.401,0.4
	c-0.221,0-0.4-0.179-0.4-0.4c0-0.221,0.18-0.4,0.4-0.4C9.3,5.319,9.479,5.499,9.479,5.72z"/>
<path fill="#FFFFFF" d="M5.084,14.495V2.738h5.589v7.103h0.925v-7.28h0.917c0.163,0,0.295-0.132,0.295-0.294V0.38
	c0-0.162-0.132-0.294-0.295-0.294H3.028c-0.162,0-0.293,0.132-0.293,0.294v1.887c0,0.162,0.131,0.294,0.293,0.294h1.13v11.935
	c0,0.763,0.618,1.38,1.379,1.38h2.234V14.95H5.538C5.289,14.95,5.084,14.745,5.084,14.495z M3.626,1.669V0.977h8.293v0.692H3.626z"
	/>
<path fill="#FFFFFF" d="M13.22,10.713c-0.167-0.167-0.438-0.167-0.604,0l-1.791,1.791l-0.738-0.741
	c-0.083-0.081-0.191-0.126-0.306-0.124c-0.116,0.002-0.226,0.048-0.306,0.132l-1.531,1.602c-0.163,0.171-0.156,0.441,0.015,0.604
	c0.082,0.078,0.188,0.117,0.296,0.117c0.112,0,0.224-0.044,0.31-0.131l1.228-1.285l0.732,0.73c0.167,0.168,0.438,0.168,0.604,0
	l2.092-2.089C13.385,11.151,13.385,10.88,13.22,10.713z"/>
</svg>
