<?xml version="1.0" encoding="utf-8"?>
<!-- Generator: Adobe Illustrator 16.0.0, SVG Export Plug-In . SVG Version: 6.00 Build 0)  -->
<!DOCTYPE svg PUBLIC "-//W3C//DTD SVG 1.1//EN" "http://www.w3.org/Graphics/SVG/1.1/DTD/svg11.dtd">
<svg version="1.1" id="图层_1" xmlns="http://www.w3.org/2000/svg" xmlns:xlink="http://www.w3.org/1999/xlink" x="0px" y="0px"
	 width="16px" height="16px" viewBox="0 0 16 16" enable-background="new 0 0 16 16" xml:space="preserve">
<path fill="#FFFFFF" d="M5.597,3.498c0.298,0.297,0.787,0.297,1.084,0l0.575-0.575v3.483c0,0.422,0.346,0.767,0.767,0.767
	S8.79,6.827,8.79,6.405V2.921l0.575,0.575c0.298,0.297,0.787,0.297,1.084,0c0.298-0.298,0.298-0.787,0-1.085L8.565,0.529
	c-0.297-0.298-0.787-0.298-1.084,0L5.597,2.413C5.297,2.71,5.297,3.198,5.597,3.498z"/>
<path fill="#FFFFFF" d="M15.046,1.381h-4.387l0.888,0.887h3.375v8.709H1.121V2.269H4.48l0.887-0.887H1
	c-0.49,0-0.891,0.401-0.891,0.891v9.886c0,0.489,0.401,0.892,0.891,0.892h4.688v1.33l-1.004,1.004c0,0-0.109,0.219,0.165,0.219
	h6.349c0.274,0,0.165-0.219,0.165-0.219l-1.004-1.004v-1.33h4.688c0.49,0,0.892-0.402,0.892-0.892V2.272
	C15.938,1.783,15.536,1.381,15.046,1.381z"/>
</svg>
