<?xml version="1.0" encoding="utf-8"?>
<!-- Generator: Adobe Illustrator 16.0.0, SVG Export Plug-In . SVG Version: 6.00 Build 0)  -->
<!DOCTYPE svg PUBLIC "-//W3C//DTD SVG 1.1//EN" "http://www.w3.org/Graphics/SVG/1.1/DTD/svg11.dtd">
<svg version="1.1" id="图层_1" xmlns="http://www.w3.org/2000/svg" xmlns:xlink="http://www.w3.org/1999/xlink" x="0px" y="0px"
	 width="16px" height="16px" viewBox="0 0 16 16" enable-background="new 0 0 16 16" xml:space="preserve">
<path fill="#FFFFFF" d="M12.039,5.359H4.081c-0.366,0-0.663,0.297-0.663,0.663c0,0.367,0.296,0.664,0.663,0.664h7.958
	c0.365,0,0.662-0.297,0.662-0.664C12.701,5.656,12.404,5.359,12.039,5.359z M12.039,2.707H4.081c-0.366,0-0.663,0.296-0.663,0.663
	s0.296,0.664,0.663,0.664h7.958c0.365,0,0.662-0.297,0.662-0.664S12.404,2.707,12.039,2.707z M15.354,10.578V1.381
	c0-0.733-0.595-1.327-1.326-1.327H2.092c-0.732,0-1.327,0.594-1.327,1.327v13.262c0,0.732,0.594,1.326,1.327,1.326h7.821
	c0.212,0.043,0.438-0.017,0.604-0.181l4.65-4.65C15.319,10.986,15.382,10.776,15.354,10.578z M10.712,13.717v-2.389h2.391
	L10.712,13.717z M14.028,10.001h-3.979c-0.366,0-0.662,0.297-0.662,0.663c0,0.002,0,0.003,0,0.004s0,0.002,0,0.004v3.972H2.755
	c-0.367,0-0.663-0.296-0.663-0.664V2.044c0-0.367,0.296-0.663,0.663-0.663h10.609c0.366,0,0.664,0.296,0.664,0.663V10.001
	L14.028,10.001z"/>
</svg>
