<?xml version="1.0" standalone="no"?><!DOCTYPE svg PUBLIC "-//W3C//DTD SVG 1.1//EN" "http://www.w3.org/Graphics/SVG/1.1/DTD/svg11.dtd"><svg t="1575356037516" class="icon" viewBox="0 0 1024 1024" version="1.1" xmlns="http://www.w3.org/2000/svg" p-id="25936" xmlns:xlink="http://www.w3.org/1999/xlink" width="16" height="16"><defs><style type="text/css"></style></defs><path d="M363.2 584c-62.4 0-113.6-51.2-113.6-113.6 0-62.4 51.2-113.6 113.6-113.6 62.4 0 113.6 51.2 113.6 113.6 0 64-51.2 113.6-113.6 113.6z m0-196.8c-46.4 0-84.8 38.4-84.8 84.8s38.4 83.2 84.8 83.2 83.2-38.4 83.2-83.2-36.8-84.8-83.2-84.8z" p-id="25937" fill="#ffffff"></path><path d="M332.8 468.8H304c0-28.8 24-57.6 52.8-57.6v28.8c-14.4 0-24 14.4-24 28.8zM720 689.6c-44.8 0-81.6-36.8-81.6-81.6s36.8-81.6 81.6-81.6 81.6 36.8 81.6 81.6-36.8 81.6-81.6 81.6z m0-136c-28.8 0-52.8 24-52.8 52.8 0 28.8 24 52.8 52.8 52.8 28.8 0 52.8-24 52.8-52.8 0-28.8-24-52.8-52.8-52.8zM588.8 548.8c-38.4 0-70.4-32-70.4-70.4s32-70.4 70.4-70.4c38.4 0 70.4 32 70.4 70.4s-30.4 70.4-70.4 70.4z m0-110.4c-22.4 0-41.6 17.6-41.6 41.6s17.6 41.6 41.6 41.6c22.4 0 41.6-17.6 41.6-41.6s-17.6-41.6-41.6-41.6zM539.2 347.2c-35.2 0-64-28.8-64-64s28.8-64 64-64 64 28.8 64 64c1.6 35.2-27.2 64-64 64z m0-99.2c-19.2 0-35.2 16-35.2 35.2s16 35.2 35.2 35.2c19.2 0 35.2-16 35.2-35.2s-14.4-35.2-35.2-35.2z" p-id="25938" fill="#ffffff"></path><path d="M809.6 804.8H214.4l1.6-35.2c1.6-46.4 20.8-88 52.8-112 32-24 70.4-28.8 104-14.4 43.2-41.6 94.4-60.8 145.6-52.8 46.4 8 88 36.8 115.2 83.2 33.6-20.8 75.2-22.4 112-3.2 41.6 20.8 65.6 64 65.6 113.6v20.8z m-564.8-28.8H784c-3.2-43.2-22.4-62.4-49.6-76.8-30.4-16-67.2-14.4-92.8 4.8l-19.2 12.8-8-16c-22.4-46.4-57.6-75.2-100.8-81.6-44.8-6.4-91.2 11.2-128 51.2l-8 8-9.6-6.4c-24-14.4-56-12.8-81.6 6.4-24 17.6-40 54.4-41.6 91.2v6.4z" p-id="25939" fill="#ffffff"></path><path d="M558.4 729.6c-8-33.6-40-46.4-40-46.4L528 656c1.6 0 46.4 19.2 57.6 65.6l-27.2 8z" p-id="25940" fill="#ffffff"></path></svg>