<?xml version="1.0" standalone="no"?><!DOCTYPE svg PUBLIC "-//W3C//DTD SVG 1.1//EN" "http://www.w3.org/Graphics/SVG/1.1/DTD/svg11.dtd"><svg t="1575355309737" class="icon" viewBox="0 0 1024 1024" version="1.1" xmlns="http://www.w3.org/2000/svg" p-id="13722" xmlns:xlink="http://www.w3.org/1999/xlink" width="16" height="16"><defs><style type="text/css"></style></defs><path d="M511.990608 186.50543a325.503963 325.503963 0 1 0 325.503962 325.503962 325.503963 325.503963 0 0 0-325.503962-325.503962z m-54.081127 564.240775a240.737306 240.737306 0 0 1-184.486152-184.011459c-34.245729-157.937235 84.190244-297.530966 235.753026-299.192392h7.357746a16.343011 16.343011 0 0 1 15.088465 16.241291v201.744644a32.652116 32.652116 0 0 1 13.020158 20.343997 30.855063 30.855063 0 0 1 0.576413 6.137106 32.71993 32.71993 0 0 1-43.027555 30.99069 31.29585 31.29585 0 0 1-20.581344-20.615251 32.753836 32.753836 0 0 1 12.002959-36.856542V383.164074A130.642372 130.642372 0 0 0 386.535956 542.796642a128.065465 128.065465 0 0 0 97.006962 96.294922 130.506745 130.506745 0 0 0 141.051717-194.895497 16.309105 16.309105 0 0 1 13.833918-24.955304 16.173478 16.173478 0 0 1 13.833919 7.696812 163.023235 163.023235 0 1 1-158.649275-76.696871V300.90651a212.120082 212.120082 0 0 0-189.300899 254.299971 209.170203 209.170203 0 0 0 164.074342 164.549034 212.052269 212.052269 0 0 0 214.764802-332.522642 16.309105 16.309105 0 1 1 26.31157-19.258984A243.246399 243.246399 0 0 1 756.52546 512.009392c0 152.579982-139.966704 272.711289-298.615979 238.736813z" p-id="13723" fill="#ffffff"></path><path d="M511.990608 1024C225.275867 1024-7.154306 787.094147 0.169533 498.751887 7.222119 220.615532 238.262119-2.354682 516.500194 0.018784a508.294782 508.294782 0 0 1 277.186968 84.359777 16.512545 16.512545 0 0 1 4.340053 23.327784A16.478638 16.478638 0 0 1 775.445378 111.910771a479.033332 479.033332 0 0 0-742.555915 400.098621c0 264.098996 214.866522 478.965518 478.965518 478.965518s479.101145-214.866522 479.101145-478.965518A473.438732 473.438732 0 0 0 945.995891 309.315362a16.580358 16.580358 0 0 1 7.425559-21.801984 16.546451 16.546451 0 0 1 22.446211 7.662906A506.192569 506.192569 0 0 1 1023.981216 512.009392c0 282.306874-229.683734 511.990608-511.990608 511.990608z" p-id="13724" fill="#ffffff"></path><path d="M927.00816 223.361972m-18.648664 0a18.648665 18.648665 0 1 0 37.297329 0 18.648665 18.648665 0 1 0-37.297329 0Z" p-id="13725" fill="#ffffff"></path></svg>