<?xml version="1.0" standalone="no"?><!DOCTYPE svg PUBLIC "-//W3C//DTD SVG 1.1//EN" "http://www.w3.org/Graphics/SVG/1.1/DTD/svg11.dtd"><svg t="1575354857882" class="icon" viewBox="0 0 1024 1024" version="1.1" xmlns="http://www.w3.org/2000/svg" p-id="8642" xmlns:xlink="http://www.w3.org/1999/xlink" width="16" height="16"><defs><style type="text/css"></style></defs><path d="M697.386667 467.84h-70.613334a35.413333 35.413333 0 0 0 0 70.613333h70.613334a35.413333 35.413333 0 0 0 0-70.613333zM697.386667 679.68h-70.613334a35.413333 35.413333 0 0 0 0 70.613333h70.613334a35.413333 35.413333 0 0 0 0-70.613333z" p-id="8643" fill="#ffffff"></path><path d="M833.28 218.88l-29.866667-14.506667-282.666666-137.6a49.92 49.92 0 0 0-70.613334 46.933334v112.64l-229.546666 83.626666-24.106667 8.746667A70.613333 70.613333 0 0 0 149.333333 385.066667v506.453333a70.613333 70.613333 0 0 0 70.613334 70.613333h583.466666A72.32 72.32 0 0 0 874.666667 888.533333V285.653333a74.026667 74.026667 0 0 0-41.386667-66.773333z m-384 669.653333v3.2H256a35.413333 35.413333 0 0 1-35.413333-35.413333V409.813333a35.413333 35.413333 0 0 1 23.253333-33.28l206.293333-75.093333z m353.066667-36.906666A36.053333 36.053333 0 0 1 768 888.533333H520.746667V148.266667l262.186666 128a37.12 37.12 0 0 1 21.333334 33.493333z" p-id="8644" fill="#ffffff"></path></svg>