<?xml version="1.0" standalone="no"?><!DOCTYPE svg PUBLIC "-//W3C//DTD SVG 1.1//EN" "http://www.w3.org/Graphics/SVG/1.1/DTD/svg11.dtd"><svg t="1575355970446" class="icon" viewBox="0 0 1024 1024" version="1.1" xmlns="http://www.w3.org/2000/svg" p-id="24692" xmlns:xlink="http://www.w3.org/1999/xlink" width="16" height="16"><defs><style type="text/css"></style></defs><path d="M459.913526 964.407699H279.464734c-44.438294 0-80.907862-36.152555-81.294537-80.58883l-3.448773-395.157151c-0.195861-22.498805-19.347861-42.428192-41.821426-43.520573l-61.808361-3.003542c-33.733568-1.639581-44.0496-17.751693-47.196505-27.208561-3.146905-9.457878-4.540145-28.539206 21.487192-50.062743L99.429875 336.709729c26.054595-21.545748 69.710454-54.978456 97.318814-74.527227L458.321396 76.966406c16.127256-11.420528 37.170226-17.70929 59.252068-17.70929 23.465996 0 45.605385 6.974276 62.339407 19.639634L734.678599 196.032887c26.503864 20.060635 70.100157 52.048614 97.183528 71.307631l138.738422 98.657536c26.727994 19.007628 28.138397 36.152555 24.614914 47.187418-3.497234 10.951067-14.410946 24.006129-46.552384 24.007139-0.384655 0-0.766282-0.002019-1.156995-0.005048l-69.254117-0.641093c-10.577517 0-20.49577 4.127221-27.930421 11.623457-7.432632 7.493207-11.479085 17.449824-11.39327 28.035419l3.297335 406.362635c0.175669 21.524546-8.092906 41.83758-23.280231 57.195526-15.188334 15.357945-35.407475 23.851661-56.93404 23.915265l-180.884937 0.54518c-33.542754 0.101969-87.917474 0.183746-121.212877 0.183747zM85.802374 400.985537c1.885922 0.362444 4.283708 0.67239 7.248886 0.816762l61.80836 3.003542c43.862825 2.131253 79.859903 39.591233 80.242539 83.504538l3.448774 395.156141c0.194852 22.363519 18.549272 40.557414 40.912791 40.557414h180.448792c33.261078 0 87.582288-0.081777 121.090717-0.182736l180.883927-0.544171c10.701697-0.032307 20.765331-4.268564 28.341326-11.928355 7.574985-7.65979 11.699176-17.771885 11.612351-28.471563l-3.297334-406.362635c-0.17466-21.432673 8.030311-41.606383 23.103551-56.802793 15.075259-15.19843 35.176278-23.567965 56.601884-23.567965l0.753157 0.003029 65.186462 0.604747-135.73084-96.520225c-27.352933-19.45084-71.383351-51.757851-98.151729-72.017376L555.54127 111.097754c-9.618403-7.280183-23.457919-11.455864-37.966796-11.455864-13.596204 0-26.686601 3.747613-35.915301 10.282716L220.084447 295.140701c-26.926884 19.068204-69.508535 51.676074-94.919009 72.690776l-34.048561 28.15657c-2.28774 1.891979-4.021213 3.576992-5.314503 4.99749z" p-id="24693" fill="#ffffff"></path><path d="M294.44812 965.69695c-6.587602 0-13.104531-2.200915-18.350383-6.198908l-67.45603-51.391368c-13.284239-10.126229-15.855675-29.167174-5.735504-42.448384L415.049183 587.20416c-23.436717-52.040538-16.458403-113.589432 19.093444-160.255901 23.20552-30.456425 56.440349-51.541798 93.581296-59.37019a20.193901 20.193901 0 0 1 23.619454 25.163123c-12.440219 44.777518-3.65675 85.173397 22.925863 105.424845 11.991959 9.135817 26.668428 13.768844 43.622542 13.768844 20.472549 0 42.639197-6.796587 64.102158-19.654778a20.191882 20.191882 0 0 1 30.532145 16.091921c2.31197 37.892086-9.193364 75.530764-32.397874 105.985169-15.070211 19.780977-34.729028 35.947608-56.853273 46.753293-21.428635 10.464443-45.288372 15.996009-69.002728 15.996009-7.906131 0-15.79409-0.605756-23.573013-1.808183L318.548141 953.762538c-5.688053 7.470996-14.698681 11.934412-24.100021 11.934412z m-53.300511-83.594391l51.395407 39.155088 213.667467-280.454136a20.189863 20.189863 0 0 1 20.897588-7.367008 113.499579 113.499579 0 0 0 27.163129 3.285219c36.890568 0 71.055233-17.072236 93.733745-46.840119 10.735014-14.089895 18.119185-30.218161 21.776945-47.162178-17.398335 6.328136-34.934985 9.598211-51.890108 9.598211-25.633594 0-49.180357-7.617387-68.096112-22.029344-31.995047-24.37564-47.55794-65.624626-43.830519-112.388015-15.366022 8.024254-28.962226 19.429638-39.699259 33.521553-28.585647 37.523584-32.470566 87.814495-9.897051 128.122539a20.191882 20.191882 0 0 1-1.554775 22.104054L241.147609 882.102559z" p-id="24694" fill="#ffffff"></path></svg>