<?xml version="1.0" standalone="no"?><!DOCTYPE svg PUBLIC "-//W3C//DTD SVG 1.1//EN" "http://www.w3.org/Graphics/SVG/1.1/DTD/svg11.dtd"><svg t="1575355210945" class="icon" viewBox="0 0 1024 1024" version="1.1" xmlns="http://www.w3.org/2000/svg" p-id="12432" xmlns:xlink="http://www.w3.org/1999/xlink" width="16" height="16"><defs><style type="text/css"></style></defs><path d="M148.48 148.48c-7.68 0-15.36 2.56-20.48 7.68-5.12 5.12-7.68 12.8-7.68 20.48v698.88c0 7.68 2.56 15.36 7.68 20.48 5.12 5.12 12.8 7.68 20.48 7.68h698.88c7.68 0 15.36-2.56 20.48-7.68 5.12-5.12 7.68-12.8 7.68-20.48V176.64c0-7.68-2.56-15.36-7.68-20.48-5.12-5.12-12.8-7.68-20.48-7.68H148.48z m0-58.88h698.88c48.64 0 87.04 38.4 87.04 87.04v698.88c0 48.64-38.4 87.04-87.04 87.04H148.48c-48.64 0-87.04-38.4-87.04-87.04V176.64c0-48.64 38.4-87.04 87.04-87.04z m0 0" p-id="12433" fill="#ffffff"></path><path d="M92.16 294.4h816.64v58.88H92.16v-58.88zM460.8 680.96l184.32-184.32c10.24-10.24 30.72-10.24 40.96 0 10.24 10.24 10.24 30.72 0 40.96l-204.8 204.8c-10.24 10.24-30.72 10.24-40.96 0l-122.88-122.88c-7.68-7.68-10.24-17.92-7.68-28.16 2.56-10.24 10.24-17.92 20.48-20.48 10.24-2.56 20.48 0 28.16 7.68l102.4 102.4z m0 0" p-id="12434" fill="#ffffff"></path></svg>