<?xml version="1.0" standalone="no"?><!DOCTYPE svg PUBLIC "-//W3C//DTD SVG 1.1//EN" "http://www.w3.org/Graphics/SVG/1.1/DTD/svg11.dtd"><svg t="1575356058365" class="icon" viewBox="0 0 1024 1024" version="1.1" xmlns="http://www.w3.org/2000/svg" p-id="26120" xmlns:xlink="http://www.w3.org/1999/xlink" width="16" height="16"><defs><style type="text/css"></style></defs><path d="M448 128v128c0 19.2-12.8 32-32 32s-32-12.8-32-32V160H288c-19.2 0-32-12.8-32-32s12.8-32 32-32h128c19.2 0 32 12.8 32 32zM576 128v128c0 19.2 12.8 32 32 32s32-12.8 32-32V160h96c19.2 0 32-12.8 32-32s-12.8-32-32-32h-128c-19.2 0-32 12.8-32 32z" fill="#ffffff" p-id="26121"></path><path d="M406.4 240c16-6.4 35.2 3.2 41.6 22.4 6.4 16-3.2 35.2-22.4 41.6C307.2 339.2 224 448 224 576c0 160 128 288 288 288s288-128 288-288c0-128-83.2-236.8-201.6-275.2-16-6.4-25.6-22.4-22.4-41.6 6.4-16 22.4-25.6 41.6-22.4C764.8 284.8 864 422.4 864 576c0 195.2-156.8 352-352 352S160 771.2 160 576c0-153.6 102.4-291.2 246.4-336z" fill="#ffffff" p-id="26122"></path><path d="M288 576c0-19.2 12.8-32 32-32s32 12.8 32 32c0 89.6 70.4 160 160 160s160-70.4 160-160c0-19.2 12.8-32 32-32s32 12.8 32 32c0 124.8-99.2 224-224 224s-224-99.2-224-224z" fill="#ffffff" p-id="26123"></path></svg>