<?xml version="1.0" standalone="no"?><!DOCTYPE svg PUBLIC "-//W3C//DTD SVG 1.1//EN" "http://www.w3.org/Graphics/SVG/1.1/DTD/svg11.dtd"><svg t="1575355534517" class="icon" viewBox="0 0 1024 1024" version="1.1" xmlns="http://www.w3.org/2000/svg" p-id="18407" xmlns:xlink="http://www.w3.org/1999/xlink" width="16" height="16"><defs><style type="text/css"></style></defs><path d="M704 336.18H576a16 16 0 0 1 0-32h128a16 16 0 0 1 0 32zM704 464.52H320a16 16 0 0 1 0-32h384a16 16 0 0 1 0 32zM704 592.36H320a16 16 0 1 1 0-32h384a16 16 0 0 1 0 32zM704 720.19H320a16 16 0 0 1 0-32h384a16 16 0 0 1 0 32z" fill="#ffffff" p-id="18408"></path><path d="M768.06 160.18v703.64H255.94V160.18h512.12m20-32H235.94a12 12 0 0 0-12 12v743.64a12 12 0 0 0 12 12h552.12a12 12 0 0 0 12-12V140.18a12 12 0 0 0-12-12z" fill="#ffffff" p-id="18409"></path><path d="M384 400.29a16 16 0 0 1-11.31-4.69l-45.27-45.26a16 16 0 0 1 22.63-22.63l33.95 34 79.08-79.08a16 16 0 0 1 22.63 22.62l-90.4 90.4a16 16 0 0 1-11.31 4.64z" fill="#ffffff" p-id="18410"></path></svg>