<?xml version="1.0" standalone="no"?><!DOCTYPE svg PUBLIC "-//W3C//DTD SVG 1.1//EN" "http://www.w3.org/Graphics/SVG/1.1/DTD/svg11.dtd"><svg t="1575355496641" class="icon" viewBox="0 0 1024 1024" version="1.1" xmlns="http://www.w3.org/2000/svg" p-id="17509" xmlns:xlink="http://www.w3.org/1999/xlink" width="16" height="16"><defs><style type="text/css"></style></defs><path d="M644.16 545.216c-25.472 0-37.312 15.424-37.312 42.688v56.256c0 27.264 11.84 42.688 37.312 42.688s37.312-16 37.312-42.688v-56.256c0-26.688-11.84-42.688-37.312-42.688zM379.84 337.216c-25.472 0-37.312 15.424-37.312 42.688v56.32c0 27.264 11.84 42.048 37.312 42.048s37.312-15.424 37.312-42.048v-56.32c0.064-26.688-11.84-42.688-37.312-42.688z" p-id="17510" fill="#ffffff"></path><path d="M926.272 472.64l-101.504-100.608v-128.64c0-16.896-4.992-30.464-14.848-40.704-9.92-10.176-23.616-15.296-41.152-15.296h-128.64L550.912 97.28c-11.648-11.072-24.832-16.64-39.36-16.64-14.592 0-27.712 5.568-39.36 16.64L382.912 187.392H242.88c-16.896 0-30.464 5.12-40.704 15.296-10.24 10.24-15.296 23.744-15.296 40.704V383.36L96.768 472.64c-11.072 11.648-16.64 24.832-16.64 39.36 0 14.592 5.568 27.712 16.64 39.36L186.88 640.64v134.72c0 16.896 5.12 30.336 15.296 40.256 10.176 9.92 23.744 15.168 40.704 15.744h133.888l95.36 95.36c11.648 11.072 24.768 16.64 39.36 16.64 14.592 0 27.712-5.568 39.36-16.64l100.608-101.504h123.392c16.896 0 30.336-4.928 40.256-14.848 9.92-9.92 15.168-23.616 15.744-41.152v-122.496l100.608-101.504c8.768-8.768 12.8-20.096 12.224-34.112-0.512-13.952-6.336-26.816-17.408-38.464z m-629.376-34.688v-59.84c0-50.944 36.736-81.152 82.944-81.152 46.208 0 82.944 30.208 82.944 81.152v59.84c0 50.944-36.736 80.576-82.944 80.576-46.208 0-82.944-29.632-82.944-80.576z m139.84 284.992h-48.576l199.104-421.888h48l-198.528 421.888z m290.368-76.992c0 50.944-36.736 81.152-82.944 81.152-46.208 0-82.944-30.208-82.944-81.152v-59.84c0-50.944 36.736-81.152 82.944-81.152 46.208 0 82.944 30.208 82.944 81.152v59.84z" p-id="17511" fill="#ffffff"></path></svg>