<?xml version="1.0" standalone="no"?><!DOCTYPE svg PUBLIC "-//W3C//DTD SVG 1.1//EN" "http://www.w3.org/Graphics/SVG/1.1/DTD/svg11.dtd"><svg t="1575355932510" class="icon" viewBox="0 0 1024 1024" version="1.1" xmlns="http://www.w3.org/2000/svg" p-id="24069" xmlns:xlink="http://www.w3.org/1999/xlink" width="16" height="16"><defs><style type="text/css"></style></defs><path d="M512 896C264.9728 896 64 695.0272 64 448S264.9728 0 512 0s448 200.9728 448 448-200.9728 448-448 448z m0-844.8C293.2096 51.2 115.2 229.2096 115.2 448c0 218.8032 178.0096 396.8 396.8 396.8 218.8032 0 396.8-177.9968 396.8-396.8C908.8 229.2096 730.8032 51.2 512 51.2z" fill="#ffffff" p-id="24070"></path><path d="M512 652.8c-112.9216 0-204.8-91.8784-204.8-204.8s91.8784-204.8 204.8-204.8 204.8 91.8784 204.8 204.8-91.8784 204.8-204.8 204.8z m0-358.4c-84.6976 0-153.6 68.9024-153.6 153.6s68.9024 153.6 153.6 153.6 153.6-68.9024 153.6-153.6-68.9024-153.6-153.6-153.6z" fill="#ffffff" p-id="24071"></path><path d="M448.64 499.84c-63.5136 0-115.2-51.6864-115.2-115.2s51.6864-115.2 115.2-115.2 115.2 51.6864 115.2 115.2-51.6864 115.2-115.2 115.2z m0-179.2c-35.2896 0-64 28.7104-64 64s28.7104 64 64 64 64-28.7104 64-64-28.7104-64-64-64zM512 1024C263.7952 1024 0 961.2032 0 844.8c0-59.1104 65.3696-108.0192 189.0304-141.4528a25.6 25.6 0 1 1 13.3632 49.4208C90.7904 782.9376 51.2 821.1968 51.2 844.8c0 53.4528 175.3088 128 460.8 128 285.504 0 460.8-74.5472 460.8-128 0-23.6032-39.6032-61.8624-151.1936-92.0192a25.6 25.6 0 0 1 13.3504-49.4208C958.6432 736.7808 1024 785.6896 1024 844.8c0 116.4032-263.7952 179.2-512 179.2z" fill="#ffffff" p-id="24072"></path></svg>