<?xml version="1.0" standalone="no"?><!DOCTYPE svg PUBLIC "-//W3C//DTD SVG 1.1//EN" "http://www.w3.org/Graphics/SVG/1.1/DTD/svg11.dtd"><svg t="1575356200827" class="icon" viewBox="0 0 1024 1024" version="1.1" xmlns="http://www.w3.org/2000/svg" p-id="28874" xmlns:xlink="http://www.w3.org/1999/xlink" width="16" height="16"><defs><style type="text/css"></style></defs><path d="M224 544v224h576v-224H224z m0-64h576c35.2 0 64 28.8 64 64v224c0 35.2-28.8 64-64 64H224c-35.2 0-64-28.8-64-64v-224c0-35.2 28.8-64 64-64zM768 377.6c3.2 16-6.4 35.2-22.4 38.4-16 3.2-35.2-6.4-38.4-22.4l-32-99.2V288H352v3.2l-32 99.2c-3.2 16-22.4 28.8-38.4 22.4-16-3.2-28.8-22.4-22.4-38.4l32-92.8c0-32 25.6-57.6 60.8-57.6h320c35.2 0 60.8 25.6 64 60.8l32 92.8z" fill="#ffffff" p-id="28875"></path><path d="M336 656m-48 0a48 48 0 1 0 96 0 48 48 0 1 0-96 0Z" fill="#ffffff" p-id="28876"></path><path d="M688 656m-48 0a48 48 0 1 0 96 0 48 48 0 1 0-96 0Z" fill="#ffffff" p-id="28877"></path></svg>