<?xml version="1.0" standalone="no"?><!DOCTYPE svg PUBLIC "-//W3C//DTD SVG 1.1//EN" "http://www.w3.org/Graphics/SVG/1.1/DTD/svg11.dtd"><svg t="1603365324765" class="icon" viewBox="0 0 1024 1024" version="1.1" xmlns="http://www.w3.org/2000/svg" p-id="1565" xmlns:xlink="http://www.w3.org/1999/xlink" width="200" height="200"><defs><style type="text/css"></style></defs><path d="M512 981.333333C252.8 981.333333 42.666667 771.2 42.666667 512S252.8 42.666667 512 42.666667s469.333333 210.133333 469.333333 469.333333-210.133333 469.333333-469.333333 469.333333z m0-64a405.333333 405.333333 0 1 0 0-810.666666 405.333333 405.333333 0 0 0 0 810.666666z m213.333333-224.64a32.768 32.768 0 0 1-32.597333 32.64C475.136 725.76 298.666667 549.248 298.666667 331.306667A32.725333 32.725333 0 0 1 331.264 298.666667h79.146667a32.426667 32.426667 0 0 1 32.597333 32.213333c0.042667 26.410667 4.181333 52.693333 12.202667 77.866667a32.256 32.256 0 0 1-7.936 33.066666l-44.330667 44.714667a332.586667 332.586667 0 0 0 134.656 134.826667l44.245333-44.330667a33.109333 33.109333 0 0 1 33.28-7.936 246.357333 246.357333 0 0 0 77.653334 12.16 32.725333 32.725333 0 0 1 32.554666 32.64v78.805333z" fill="#52C41A" p-id="1566"></path></svg>