<?xml version="1.0" standalone="no"?><!DOCTYPE svg PUBLIC "-//W3C//DTD SVG 1.1//EN" "http://www.w3.org/Graphics/SVG/1.1/DTD/svg11.dtd"><svg t="1603366181444" class="icon" viewBox="0 0 1024 1024" version="1.1" xmlns="http://www.w3.org/2000/svg" p-id="2216" xmlns:xlink="http://www.w3.org/1999/xlink" width="200" height="200"><defs><style type="text/css"></style></defs><path d="M187.733333 473.6l76.8 2.133333c6.4-57.6 29.866667-115.2 78.933334-157.866666 44.8-40.533333 100.266667-57.6 155.733333-61.866667l2.133333-78.933333c-76.8 0-149.333333 27.733333-211.2 83.2-61.866667 57.6-96 134.4-102.4 213.333333z" p-id="2217"></path><path d="M238.933333 200.533333c76.8-70.4 174.933333-104.533333 268.8-104.533333L512 19.2C396.8 19.2 279.466667 59.733333 185.6 145.066667s-149.333333 204.8-155.733333 324.266666h78.933333c6.4-96 51.2-194.133333 130.133333-268.8zM106.666667 910.933333c-6.4 19.2-8.533333 34.133333-10.666667 44.8-2.133333 19.2-2.133333 32 6.4 40.533334 6.4 8.533333 19.2 10.666667 40.533333 8.533333 8.533333-2.133333 23.466667-4.266667 42.666667-10.666667 10.666667-2.133333 23.466667-6.4 36.266667-10.666666l-108.8-100.266667c-2.133333 10.666667-4.266667 19.2-6.4 27.733333zM285.866667 608c-23.466667 23.466667-44.8 44.8-59.733334 61.866667-17.066667 17.066667-25.6 27.733333-29.866666 32-10.666667 10.666667-19.2 19.2-23.466667 27.733333-6.4 8.533333-10.666667 17.066667-14.933333 27.733333-4.266667 6.4-8.533333 19.2-14.933334 36.266667-6.4 14.933333-10.666667 32-17.066666 49.066667l136.533333 125.866666c17.066667-6.4 32-10.666667 46.933333-17.066666 19.2-6.4 34.133333-12.8 44.8-19.2 10.666667-4.266667 19.2-10.666667 29.866667-17.066667 8.533333-6.4 17.066667-14.933333 25.6-21.333333 2.133333-2.133333 12.8-10.666667 27.733333-25.6 14.933333-14.933333 34.133333-34.133333 57.6-59.733334 23.466667-23.466667 49.066667-51.2 78.933334-78.933333L661.333333 640l236.8-232.533333-206.933333-206.933334-405.333333 407.466667zM996.266667 249.6c-2.133333-8.533333-4.266667-17.066667-6.4-23.466667-10.666667-21.333333-25.6-42.666667-42.666667-64-19.2-19.2-36.266667-34.133333-51.2-42.666666-6.4-4.266667-17.066667-6.4-25.6-10.666667-10.666667-2.133333-19.2-4.266667-29.866667-4.266667s-21.333333 2.133333-32 4.266667c-10.666667 4.266667-21.333333 8.533333-32 17.066667-8.533333 6.4-19.2 14.933333-29.866666 27.733333-12.8 10.666667-23.466667 21.333333-32 29.866667l206.933333 206.933333c4.266667-4.266667 10.666667-8.533333 17.066667-14.933333 4.266667-4.266667 10.666667-10.666667 19.2-17.066667l23.466666-23.466667c8.533333-8.533333 14.933333-17.066667 17.066667-27.733333 4.266667-8.533333 6.4-19.2 6.4-27.733333-6.4-12.8-6.4-21.333333-8.533333-29.866667z" p-id="2218"></path></svg>