<?xml version="1.0" standalone="no"?><!DOCTYPE svg PUBLIC "-//W3C//DTD SVG 1.1//EN" "http://www.w3.org/Graphics/SVG/1.1/DTD/svg11.dtd"><svg t="1587711892379" class="icon" viewBox="0 0 1027 1024" version="1.1" xmlns="http://www.w3.org/2000/svg" p-id="1915" xmlns:xlink="http://www.w3.org/1999/xlink" width="200.5859375" height="200"><defs><style type="text/css"></style></defs><path d="M945.210993 81.018085v641.393174H81.018085V81.018085h864.192908m54.012056-81.018085H27.006028a27.006028 27.006028 0 0 0-27.006028 27.006028v749.417287a27.006028 27.006028 0 0 0 27.006028 27.006029h972.217021a27.006028 27.006028 0 0 0 27.006029-27.006029V27.006028a27.006028 27.006028 0 0 0-27.006029-27.006028z" p-id="1916"></path><path d="M102.622908 953.852922a40.509043 40.509043 0 1 0 57.25278 57.25278l207.676358-207.676358H253.046486z m821.253322 0l-150.423578-150.423578h-114.77562l207.676358 207.676358a40.509043 40.509043 0 0 0 57.25278-57.25278zM189.042199 626.809918a40.509043 40.509043 0 0 1-27.006029-69.135432l189.042199-189.042199a67.515071 67.515071 0 0 1 95.60134 0l101.812727 101.812727 250.345883-250.345883a40.509043 40.509043 0 0 1 57.25278 57.25278l-260.338113 260.068053a66.97495 66.97495 0 0 1-47.800671 19.714401 66.97495 66.97495 0 0 1-47.80067-19.714401l-101.812727-101.812727-179.590088 179.320029a40.509043 40.509043 0 0 1-29.706631 11.882652z" p-id="1917"></path></svg>