<?xml version="1.0" standalone="no"?><!DOCTYPE svg PUBLIC "-//W3C//DTD SVG 1.1//EN" "http://www.w3.org/Graphics/SVG/1.1/DTD/svg11.dtd"><svg t="1587711449295" class="icon" viewBox="0 0 1024 1024" version="1.1" xmlns="http://www.w3.org/2000/svg" p-id="817" xmlns:xlink="http://www.w3.org/1999/xlink" width="200" height="200"><defs><style type="text/css"></style></defs><path d="M516.042105 889.263158a161.684211 161.684211 0 1 1 161.684211-161.684211 161.684211 161.684211 0 0 1-161.684211 161.684211z m0-242.526316a80.842105 80.842105 0 1 0 80.842106 80.842105 80.842105 80.842105 0 0 0-80.842106-80.842105z" p-id="818"></path><path d="M516.042105 0a40.421053 40.421053 0 0 0-40.421052 40.421053v573.170526a113.717895 113.717895 0 0 1 80.842105 0V40.421053a40.421053 40.421053 0 0 0-40.421053-40.421053z m-40.421052 841.296842v142.282105a40.421053 40.421053 0 0 0 80.842105 0v-142.282105a113.717895 113.717895 0 0 1-80.842105 0zM862.315789 458.105263a161.684211 161.684211 0 1 1 161.684211-161.68421 161.684211 161.684211 0 0 1-161.684211 161.68421z m0-242.526316a80.842105 80.842105 0 1 0 80.842106 80.842106 80.842105 80.842105 0 0 0-80.842106-80.842106z" p-id="819"></path><path d="M862.315789 0a40.421053 40.421053 0 0 0-40.421052 40.421053v142.282105a113.717895 113.717895 0 0 1 80.842105 0V40.421053A40.421053 40.421053 0 0 0 862.315789 0z m-40.421052 410.408421V983.578947a40.421053 40.421053 0 1 0 80.842105 0V410.408421a113.717895 113.717895 0 0 1-80.842105 0zM161.684211 458.105263a161.684211 161.684211 0 1 1 161.68421-161.68421 161.684211 161.684211 0 0 1-161.68421 161.68421z m0-242.526316a80.842105 80.842105 0 1 0 80.842105 80.842106 80.842105 80.842105 0 0 0-80.842105-80.842106z" p-id="820"></path><path d="M161.684211 0a40.421053 40.421053 0 0 0-40.421053 40.421053v142.282105A120.185263 120.185263 0 0 1 161.684211 175.427368a120.185263 120.185263 0 0 1 40.421052 7.545264V40.421053A40.421053 40.421053 0 0 0 161.684211 0zM121.263158 410.408421V983.578947a40.421053 40.421053 0 0 0 80.842105 0V410.408421a120.185263 120.185263 0 0 1-40.421052 7.545263 120.185263 120.185263 0 0 1-40.421053-7.545263z" p-id="821"></path></svg>