<?xml version="1.0" standalone="no"?><!DOCTYPE svg PUBLIC "-//W3C//DTD SVG 1.1//EN" "http://www.w3.org/Graphics/SVG/1.1/DTD/svg11.dtd"><svg t="1587711897445" class="icon" viewBox="0 0 1024 1024" version="1.1" xmlns="http://www.w3.org/2000/svg" p-id="2038" xmlns:xlink="http://www.w3.org/1999/xlink" width="200" height="200"><defs><style type="text/css"></style></defs><path d="M942.419227 594.348231a37.966178 37.966178 0 0 1-37.966178-37.966178A391.406717 391.406717 0 0 0 613.287968 177.539683a37.966178 37.966178 0 0 1 19.392797-73.474115 467.612211 467.612211 0 0 1 347.70464 452.316485A37.966178 37.966178 0 0 1 942.419227 594.348231z" p-id="2039"></path><path d="M512.500056 75.932357a50.530525 50.530525 0 1 1-50.530525 50.530525 50.530525 50.530525 0 0 1 50.530525-50.530525m0-75.932357a126.462882 126.462882 0 1 0 126.462882 126.462882A126.462882 126.462882 0 0 0 512.500056 0zM511.134366 1023.994264a461.330038 461.330038 0 0 1-143.670574-22.94359A471.709281 471.709281 0 0 1 278.69395 961.445668a37.966178 37.966178 0 1 1 37.966179-65.826252 391.679855 391.679855 0 0 0 473.894384-62.821734 37.966178 37.966178 0 1 1 54.627595 54.627595 471.163005 471.163005 0 0 1-334.047742 136.568987z" p-id="2040"></path><path d="M885.060252 720.811113a49.711111 49.711111 0 0 1 25.128694 6.828449 50.530525 50.530525 0 0 1 18.573382 69.103908 50.803663 50.803663 0 0 1-43.975214 25.401831 49.711111 49.711111 0 0 1-25.128693-6.828449 50.530525 50.530525 0 0 1 25.401831-94.505739m0-75.932357a126.462882 126.462882 0 1 0 63.094872 16.934555 126.462882 126.462882 0 0 0-63.094872-16.934555zM97.330336 706.607938a37.966178 37.966178 0 0 1-36.600489-27.313797 467.612211 467.612211 0 0 1 218.510379-527.429428 37.966178 37.966178 0 0 1 37.966179 65.826252A391.679855 391.679855 0 0 0 133.930824 658.808793a37.966178 37.966178 0 0 1-36.600488 47.799145z" p-id="2041"></path><path d="M140.212998 720.811113a50.530525 50.530525 0 0 1 25.401831 94.505739 49.711111 49.711111 0 0 1-25.128693 6.828449A50.803663 50.803663 0 0 1 95.691508 796.74347a50.530525 50.530525 0 0 1 43.702076-75.932357m0-75.932357a126.462882 126.462882 0 1 0 109.255189 63.36801 125.916606 125.916606 0 0 0-109.255189-63.36801z" p-id="2042"></path></svg>