<?xml version="1.0" standalone="no"?><!DOCTYPE svg PUBLIC "-//W3C//DTD SVG 1.1//EN" "http://www.w3.org/Graphics/SVG/1.1/DTD/svg11.dtd"><svg t="1591247542957" class="icon" viewBox="0 0 1024 1024" version="1.1" xmlns="http://www.w3.org/2000/svg" p-id="925" xmlns:xlink="http://www.w3.org/1999/xlink" width="200" height="200"><defs><style type="text/css"></style></defs><path d="M624.152381 14.628571l263.314286 263.314286zM707.047619 292.571429c-53.638095 0-97.52381-43.885714-97.523809-97.52381V4.87619c-7.314286-2.438095-12.190476-4.87619-19.504762-4.87619H219.428571C165.790476 0 121.904762 43.885714 121.904762 97.52381v828.95238c0 53.638095 43.885714 97.52381 97.523809 97.52381h585.142858c53.638095 0 97.52381-43.885714 97.523809-97.52381V312.07619c0-7.314286-2.438095-14.628571-4.87619-19.504761H707.047619z" fill="#FFC600" p-id="926"></path><path d="M707.047619 292.571429h190.171429c-2.438095-4.87619-4.87619-9.752381-9.752381-14.628572L624.152381 14.628571c-4.87619-4.87619-9.752381-7.314286-14.628571-9.752381V195.047619c0 53.638095 43.885714 97.52381 97.523809 97.52381z" fill="#FFE27F" p-id="927"></path><path d="M768 536.380952h-512c-19.504762 0-36.571429-17.066667-36.571429-36.571428s17.066667-36.571429 36.571429-36.571429h512c19.504762 0 36.571429 17.066667 36.571429 36.571429s-17.066667 36.571429-36.571429 36.571428zM768 731.428571h-512c-19.504762 0-36.571429-17.066667-36.571429-36.571428s17.066667-36.571429 36.571429-36.571429h512c19.504762 0 36.571429 17.066667 36.571429 36.571429s-17.066667 36.571429-36.571429 36.571428z" fill="#FFFFFF" p-id="928"></path></svg>