<?xml version="1.0" standalone="no"?><!DOCTYPE svg PUBLIC "-//W3C//DTD SVG 1.1//EN" "http://www.w3.org/Graphics/SVG/1.1/DTD/svg11.dtd"><svg t="1587711910929" class="icon" viewBox="0 0 1024 1024" version="1.1" xmlns="http://www.w3.org/2000/svg" p-id="2411" xmlns:xlink="http://www.w3.org/1999/xlink" width="200" height="200"><defs><style type="text/css"></style></defs><path d="M419.301053 0A419.301053 419.301053 0 0 0 0 419.301053V835.368421a26.947368 26.947368 0 0 0 26.947368 26.947368h377.263158v-80.842105H80.842105V419.301053a338.458947 338.458947 0 0 1 660.48-103.747369l14.012632-8.08421 40.421052 23.44421 37.187369 21.288421A419.031579 419.031579 0 0 0 419.301053 0zM40.421053 943.157895a40.421053 40.421053 0 0 0 0 80.842105h554.846315l-140.126315-80.842105z" p-id="2412"></path><path d="M1024 852.884211V572.901053a26.947368 26.947368 0 0 0-13.473684-23.444211l-242.526316-140.126316a26.947368 26.947368 0 0 0-26.947368 0l-242.526316 140.126316a26.947368 26.947368 0 0 0-13.473684 23.444211v279.983158a26.947368 26.947368 0 0 0 13.473684 23.44421l242.526316 140.126316a26.947368 26.947368 0 0 0 26.947368 0l242.526316-140.126316a26.947368 26.947368 0 0 0 13.473684-23.44421z" p-id="2413"></path><path d="M754.526316 495.023158l188.631579 107.789474v217.734736l-188.631579 107.789474-188.631579-107.789474v-216.656842l188.631579-107.789473m0-89.19579a26.947368 26.947368 0 0 0-13.473684 3.503158l-242.526316 140.126316a26.947368 26.947368 0 0 0-13.473684 23.44421v278.905264a26.947368 26.947368 0 0 0 13.473684 23.44421l242.526316 140.126316a26.947368 26.947368 0 0 0 26.947368 0l242.526316-140.126316a26.947368 26.947368 0 0 0 13.473684-23.44421V572.901053a26.947368 26.947368 0 0 0-13.473684-23.444211l-242.526316-140.126316a26.947368 26.947368 0 0 0-13.473684-3.503158z" p-id="2414"></path><path d="M795.755789 689.583158l-40.421052-23.444211-40.421053 23.444211v46.618947l40.421053 23.174737 40.421052-23.174737v-46.618947z" p-id="2415"></path><path d="M755.334737 666.138947l-40.421053 23.444211v46.618947l40.421053 23.174737 40.421052-23.174737v-46.618947l-40.421052-23.444211zM195.368421 474.273684a40.421053 40.421053 0 0 1-40.421053-40.421052A286.989474 286.989474 0 0 1 441.667368 147.402105a40.421053 40.421053 0 0 1 0 80.842106 205.877895 205.877895 0 0 0-205.877894 205.608421 40.421053 40.421053 0 0 1-40.421053 40.421052z" p-id="2416"></path></svg>