<?xml version="1.0" standalone="no"?><!DOCTYPE svg PUBLIC "-//W3C//DTD SVG 1.1//EN" "http://www.w3.org/Graphics/SVG/1.1/DTD/svg11.dtd"><svg t="1594257951768" class="icon" viewBox="0 0 1024 1024" version="1.1" xmlns="http://www.w3.org/2000/svg" p-id="843" xmlns:xlink="http://www.w3.org/1999/xlink" width="200" height="200"><defs><style type="text/css"></style></defs><path d="M541.12711111 463.88201245V482.87288889h466.03377778v29.12711111A495.16088889 495.16088889 0 1 1 512 16.83911111h29.12711111v447.04290134zM75.09333333 512a436.90666667 436.90666667 0 0 0 872.88126578 29.12711111H482.87288889V512 76.02540089A436.90666667 436.90666667 0 0 0 75.09333333 512z m904.16378312-164.21865245a29.12711111 29.12711111 0 0 1-54.93373156 19.34040178 438.18825955 438.18825955 0 0 0-267.73640534-267.56164266 29.12711111 29.12711111 0 0 1 19.28214756-54.93373156 496.44248178 496.44248178 0 0 1 303.38798934 303.15497244z" fill="#13227a" p-id="844"></path></svg>