<?xml version="1.0" standalone="no"?><!DOCTYPE svg PUBLIC "-//W3C//DTD SVG 1.1//EN" "http://www.w3.org/Graphics/SVG/1.1/DTD/svg11.dtd"><svg t="1587716140108" class="icon" viewBox="0 0 1024 1024" version="1.1" xmlns="http://www.w3.org/2000/svg" p-id="1334" xmlns:xlink="http://www.w3.org/1999/xlink" width="200" height="200"><defs><style type="text/css"></style></defs><path d="M117.05132201 23.88802499c31.8507-31.8507 19.11042-31.8507 50.96111998 2e-8C218.973561 81.219285 276.304821 132.180404 327.265941 189.511664c12.74028 12.74028 12.74028 19.11042 0 31.8507C301.785381 240.472784 301.785381 240.472784 327.265941 259.583204 365.486781 304.174184 410.07776 342.395023 448.2986 374.245723c6.37014 6.37014 6.37014 19.11042 0 25.48056C429.18818 418.836703 416.4479 437.947123 397.337481 450.687403 390.967341 457.057543 384.597201 457.057543 378.227061 450.687403c0 0 0 0 0 0C333.636081 406.09642299 295.415241 367.875583 250.824261 323.284603 238.083981 310.544323 231.713841 310.544323 218.973561 323.284603 199.86314199 348.765163 199.86314199 348.765163 180.75272199 323.284603 136.16174199 285.063764 40.60964199 189.511664 8.75894199 151.290824 2.38880199 144.920684 2.38880199 138.550544 8.75894199 132.180404 34.23950199 106.699844 85.20062201 55.738725 117.05132201 23.88802499z" p-id="1335"></path><path d="M785.916019 17.517885c-57.33126 63.7014-114.662519 127.402799-178.363919 191.104199C594.81182 221.362364 594.81182 234.102644 601.18196 253.213064c19.11042 44.59098 31.8507 89.18196 44.59098 133.772939 6.37014 12.74028 12.74028 19.11042 25.48056 19.11042001 44.59098 6.37014 95.5521 19.11042 140.143079 25.48055999 19.11042 6.37014 25.48056 0 38.22084-12.74028 50.96112001-50.96112001 95.5521-108.292379 146.51321901-159.253499 6.37014-6.37014 12.74028-12.74028 19.11042-19.11042 6.37014 31.8507 6.37014 63.7014 0 89.18196-25.48056 114.662519-108.292379 184.734059-222.95489901 203.844479-38.22084 6.37014-76.44168 0-114.662519-12.74028-6.37014 0-25.48056 0-31.8507 6.37014-101.92224 63.7014-191.104199 146.513219-267.545879 242.06531901-6.37014 12.74028-12.74028 19.11042-6.37014001 31.85069997 25.48056 89.18196-31.8507 178.363919-114.662519 197.47433902-95.5521 19.11042-171.993779-38.22084-191.10419899-121.03265899-19.11042-95.5521 50.96112001-191.104199 152.88335899-191.10419901 12.74028 0 31.8507 0 44.59098002 0 6.37014 0 12.74028 0 19.11041998-6.37014C371.85692101 597.20062198 448.2986 501.648523 512 393.356143c6.37014-6.37014 6.37014-19.11042 0-31.8507-57.33126-152.883359 38.22084-318.50699801 197.474339-343.987558C734.954899 11.147745 760.435459 17.517885 785.916019 17.517885 785.916019 17.517885 785.916019 17.517885 785.916019 17.517885zM308.155521 845.636081c0-50.96112001-38.22084-89.18196-89.18196-89.18196-50.96112001 0-89.18196 38.22084-89.18196 89.18196 0 50.96112001 38.22084 89.18196 89.18196 89.18196C269.93468101 934.81804 308.155521 890.227061 308.155521 845.636081z" p-id="1336"></path><path d="M805.026439 1004.88958c-25.48056 0-50.96112001-6.37014-70.07154-25.48056-76.44168-76.44168-146.513219-152.883359-222.954899-229.325039-6.37014-6.37014-6.37014-19.11042 0-25.48056 44.59098-70.07154 101.92224-127.402799 184.734059-159.25349901 12.74028-6.37014 19.11042-6.37014 25.48056 6.37014 70.07154 70.07154 140.14307899 133.772939 210.21461899 197.47433901 50.96112001 44.59098 50.96112001 108.292379 0 152.883359-19.11042 19.11042-38.22084 38.22084-50.96112 50.96112001C862.35769801 992.1493 836.87713802 1004.88958 805.026439 1004.88958zM906.94867799 813.785381c0 0-191.104199-191.104199-191.10419899-191.10419901-12.74028-12.74028-25.48056-6.37014-38.22084 0-12.74028 12.74028-12.74028 25.48056 0 38.22084 0 6.37014 197.474339 197.474339 197.47433899 197.47433901s19.11042 6.37014 38.22084002-6.37014C919.68895801 839.265941 906.94867799 813.785381 906.94867799 813.785381zM588.44168 705.49300199c-12.74028 12.74028-6.37014 38.22084 0 44.59098 57.33126 63.7014 121.032659 121.032659 184.734059 184.73405901 12.74028 12.74028 31.8507 19.11042 44.59098 6.37014 12.74028-12.74028 12.74028-31.8507-6.37014-44.59098-57.33126-63.7014-121.032659-121.032659-184.734059-178.36391901C626.662519 705.49300199 607.5521 692.75272199 588.44168 705.49300199z" p-id="1337"></path></svg>