<?xml version="1.0" standalone="no"?><!DOCTYPE svg PUBLIC "-//W3C//DTD SVG 1.1//EN" "http://www.w3.org/Graphics/SVG/1.1/DTD/svg11.dtd"><svg t="1587716153411" class="icon" viewBox="0 0 1024 1024" version="1.1" xmlns="http://www.w3.org/2000/svg" p-id="1703" xmlns:xlink="http://www.w3.org/1999/xlink" width="200" height="200"><defs><style type="text/css"></style></defs><path d="M861.650494 116.914316s0-33.630785-16.998168-46.607881A102.171786 102.171786 0 0 0 821.439774 55.136026V15.108082A28.695833 28.695833 0 0 0 792.012837 0.303225h-91.388002a25.223088 25.223088 0 0 0-16.815392 27.599177v14.804856a235.04994 235.04994 0 0 0-76.034817 33.813561C558.425105 106.678859 246.974795 299.141991 246.974795 299.141991a164.498403 164.498403 0 0 0-84.259737 131.23317v486.549721S147.910201 1023.848844 304.549236 1023.848844h455.843353s101.623458 8.042144 101.257905-93.215761 0-813.718767 0-813.718767zM512 871.048105a108.38617 108.38617 0 0 1-109.665602-105.827306c0-58.488321 109.665602-188.990387 109.665602-188.990387s109.665602 130.502066 109.665602 188.990387a108.38617 108.38617 0 0 1-109.665602 105.827306z m137.447555-532.792049c-1.644984 15.901512-20.653688 58.853873-53.005041 62.509393L347.501597 402.410433a25.954192 25.954192 0 0 1-23.76088-18.277601v-12.79432a404.848847 404.848847 0 0 1 47.52176-31.254696L603.388002 192.766357a41.672929 41.672929 0 0 1 45.694001 29.426936z" p-id="1704"></path></svg>