<?xml version="1.0" standalone="no"?><!DOCTYPE svg PUBLIC "-//W3C//DTD SVG 1.1//EN" "http://www.w3.org/Graphics/SVG/1.1/DTD/svg11.dtd"><svg t="1590806850751" class="icon" viewBox="0 0 1024 1024" version="1.1" xmlns="http://www.w3.org/2000/svg" p-id="861" xmlns:xlink="http://www.w3.org/1999/xlink" width="200" height="200"><defs><style type="text/css"></style></defs><path d="M806.23502222 569.14944c-122.40099555 0-221.61408 99.24039111-221.61408 221.63569778 0 122.40668445 99.21308445 221.61863111 221.61408 221.61863111 122.39530667 0 221.63569778-99.21194667 221.63569778-221.61863111 0-122.39644445-99.22901333-221.63569778-221.63569778-221.63569778z m155.96999111 236.75448889c0 9.05329778-7.35345778 16.41358222-16.41927111 16.41358222H830.60394666v98.60664889a16.38855111 16.38855111 0 0 1-16.41927111 16.41927111h-16.41472c-9.06467555 0-16.40220445-7.32273778-16.40220444-16.41927111V822.44266667H666.43512888c-9.04305778 0-16.41927111-7.35459555-16.4192711-16.41927112v-16.4295111c0-9.05443555 7.35345778-16.41927111 16.4192711-16.41927112h115.17155556v-98.61233778c0-9.08629333 7.34321778-16.41927111 16.42951111-16.4192711h16.40903111c9.06467555 0 16.40789333 7.33184 16.40789334 16.4192711v98.49173334h114.93944888c9.04305778 0 16.41927111 7.35459555 16.41927112 16.40903111v16.44088889h-0.00682667zM256.72817778 196.22115555c25.97774222 0 47.03118222-20.36167111 47.03118222-45.4656v-90.91185777c0-25.11644445-21.05457778-45.4656-47.03118222-45.4656-25.97205333 0-47.01525333 20.35029333-47.01525334 45.4656V150.75555555c0 25.11075555 21.0432 45.4656 47.01525334 45.4656zM726.9888 196.22115555c25.97091555 0 47.02549333-20.36167111 47.02549333-45.4656v-90.91185777c0-25.11644445-21.06595555-45.4656-47.02549333-45.4656-25.97205333 0-47.03232 20.35029333-47.03232 45.4656V150.75555555c0 25.11075555 21.06026667 45.4656 47.03232 45.4656zM491.85792 196.22115555c25.97205333 0 47.02663111-20.36167111 47.02663111-45.4656v-90.91185777c0-25.11644445-21.05457778-45.4656-47.02663111-45.4656s-47.01525333 20.35029333-47.01525334 45.4656V150.75555555c-0.01024 25.11075555 21.04433778 45.4656 47.01525334 45.4656z" fill="#1296db" p-id="862"></path><path d="M552.32398222 832.63374222H201.87136c-21.64963555 0-39.18392889-16.97109333-39.18392889-37.88458667 0-20.91463111 17.53429333-37.87434667 39.18392889-37.87434666h349.60384c5.23150222-38.75271111 19.04526222-74.76337778 39.48885333-106.07388444H209.71292444c-25.98229333 0-47.02663111-20.35029333-47.02663111-45.45536 0-25.11530667 21.0432-45.45536 47.02663111-45.45536h483.90712889c34.27896889-16.83114667 72.80184889-26.30769778 113.56842667-26.30769778 51.29898667 0 99.06631111 15.02208 139.24807111 40.83143111V150.75555555c0-25.10506667-21.0432-45.45649778-47.02094223-45.45649777h-78.38037333V150.75555555c0 50.22151111-42.10346667 90.92209778-94.04643555 90.92209778s-94.05212445-40.70058667-94.05212445-90.92209778v-45.45649777H585.91004444V150.75555555c0 50.22151111-42.10346667 90.92209778-94.05212444 90.92209778-51.93272889 0-94.04643555-40.70058667-94.04643556-90.92209778v-45.45649777h-47.03118222V150.75555555c0 50.22151111-42.09777778 90.92209778-94.04074667 90.92209778-51.94296889 0-94.05212445-40.70058667-94.05212444-90.92209778v-45.45649777h-78.38606223c-25.97660445 0-47.02094222 20.35029333-47.02094222 45.45649777v787.94638223c0 25.10051555 21.04888889 45.44967111 47.02094222 45.44967111h550.91086223c-43.22531555-38.65827555-73.34570667-91.65824-82.88824889-151.51786667zM209.71292444 362.88739555h564.30136889c25.97205333 0 47.02094222 20.36167111 47.02094222 45.4610489 0 25.10506667-21.04888889 45.45536-47.02094222 45.45536H209.71292444c-25.98229333 0-47.02663111-20.35029333-47.02663111-45.45536 0-25.10051555 21.0432-45.46104889 47.02663111-45.4610489z" fill="#1296db" p-id="863"></path></svg>