<?xml version="1.0" standalone="no"?><!DOCTYPE svg PUBLIC "-//W3C//DTD SVG 1.1//EN" "http://www.w3.org/Graphics/SVG/1.1/DTD/svg11.dtd"><svg t="1587716145379" class="icon" viewBox="0 0 1024 1024" version="1.1" xmlns="http://www.w3.org/2000/svg" p-id="1458" xmlns:xlink="http://www.w3.org/1999/xlink" width="200" height="200"><defs><style type="text/css"></style></defs><path d="M372.352 260.096l340.032-95.744 61.888 221.696-343.168 93.696-58.752-219.648z m60.8 259.2l515.264-147.84 63.872 214.4-512.192 143.68-66.944-210.24z m140.16 260.288l421.504-115.648 18.56 58.304-424.64 115.584-15.424-58.24zM10.624 37.376h123.648v16.64H257.92l156.672 623.552-57.728 19.776-150.4-594.432-68.032-1.024-1.088 16.704-126.72-2.112V37.376z m509.12 823.296c0 69.76-55.68 125.952-124.672 125.952A125.056 125.056 0 0 1 270.4 860.672c0-69.696 55.616-125.952 124.672-125.952 68.992 0 124.672 56.256 124.672 125.952z" p-id="1459"></path></svg>