<?xml version="1.0" standalone="no"?><!DOCTYPE svg PUBLIC "-//W3C//DTD SVG 1.1//EN" "http://www.w3.org/Graphics/SVG/1.1/DTD/svg11.dtd"><svg t="1587711916970" class="icon" viewBox="0 0 1024 1024" version="1.1" xmlns="http://www.w3.org/2000/svg" p-id="2663" xmlns:xlink="http://www.w3.org/1999/xlink" width="200" height="200"><defs><style type="text/css"></style></defs><path d="M373.918288 592.832246m28.582-28.582001l552.585342-552.585341q28.582-28.582 57.164001 0l0 0q28.582 28.582 0 57.164001l-552.585342 552.585341q-28.582 28.582-57.164001 0l0 0q-28.582-28.582 0-57.164001Z" p-id="2664"></path><path d="M889.263158 633.263158V943.157895H80.842105V134.736842h309.894737A40.421053 40.421053 0 0 0 431.157895 94.315789 40.421053 40.421053 0 0 0 390.736842 53.894737H26.947368a26.947368 26.947368 0 0 0-26.947368 26.947368v916.210527a26.947368 26.947368 0 0 0 26.947368 26.947368h916.210527a26.947368 26.947368 0 0 0 26.947368-26.947368V633.263158a40.421053 40.421053 0 0 0-40.421052-40.421053 40.421053 40.421053 0 0 0-40.421053 40.421053zM983.578947 363.789474A40.421053 40.421053 0 0 1 943.157895 323.368421V80.842105h-242.526316a40.421053 40.421053 0 0 1-40.421053-40.421052A40.421053 40.421053 0 0 1 700.631579 0h296.421053a26.947368 26.947368 0 0 1 26.947368 26.947368v296.421053a40.421053 40.421053 0 0 1-40.421053 40.421053z" p-id="2665"></path></svg>