<svg class="icon" width="200px" height="200.00px" viewBox="0 0 1024 1024" version="1.1" xmlns="http://www.w3.org/2000/svg"><path  d="M528.497743 593.370239c15.017018 2.474354 29.92352-7.426133 32.617885-22.827915 2.750647-15.292288-7.480368-29.924543-22.827915-32.618908-21.617343-3.849678-42.850947-5.996574-63.148226-6.327102-118.046556-1.375324-218.654952 33.939997-289.615097 103.743805C113.080451 706.575534 73.199139 810.320363 73.199139 927.485853c0 15.567557 12.596899 28.163433 28.163433 28.163433s28.163433-12.596899 28.163433-28.163433c0-101.928461 33.939997-191.426821 95.492888-251.988128 60.8376-59.849086 146.925281-89.277326 249.184269-87.572498 17.274432 0.275269 35.536354 2.14485 54.294581 5.445012z m290.935161 225.752604c-15.347546 2.804882-25.469068 17.437138-22.717397 32.729425 4.400217 24.313755 6.65456 49.726541 6.65456 75.635631 0 15.567557 12.596899 28.163433 28.164457 28.163433s28.164456-12.596899 28.164456-28.163433c0-29.263487-2.530636-58.087976-7.53665-85.646635-2.805906-15.402805-18.152429-25.139563-32.729426-22.718421z m-366.790803-309.857117c122.172527 0 221.570351-99.398848 221.570351-221.570351S574.814628 66.124 452.642101 66.124c-122.171504 0-221.570351 99.398848-221.570352 221.570351s99.398848 221.571375 221.570352 221.571375z m0-386.813836c91.092671 0 165.243485 74.14979 165.243485 165.242461 0 91.092671-74.14979 165.243485-165.243485 165.243485-91.091648 0-165.242462-74.14979-165.242462-165.243485 0-91.092671 74.14979-165.242462 165.242462-165.242461z m51.789526 690.955788c-12.662391 12.663414-12.662391 33.189913 0 45.853327 12.662391 12.659321 33.186843 12.659321 45.849235 0 12.662391-12.662391 12.662391-33.189913 0-45.853327-12.661368-12.657274-33.186843-12.657274-45.849235 0z m424.706865-286.403963c-0.268106-0.779759-0.51984-1.515516-0.86367-2.275833-0.059352-0.127913-0.085958-0.265036-0.146333-0.391926-0.257873-0.549515-0.753153-0.873903-1.041726-1.399883-1.261737-2.314719-2.447748-4.675486-4.40431-6.632047-0.309038-0.309038-0.725524-0.403183-1.044795-0.695848-0.522909-0.473791-1.175779-0.717338-1.730411-1.14815-5.428639-4.25593-11.822257-6.456039-18.37244-6.167466-0.064468 0.00307-0.12996 0.034792-0.192381 0.037862-3.499707 0.179079-6.913457 0.967024-10.165524 2.444678-0.186242 0.078795-0.381693 0.055259-0.562818 0.138147-1.124614 0.533143-1.850138 1.488911-2.867304 2.143826-1.6465 1.066285-3.445472 1.801019-4.889357 3.245928L806.892287 592.323397l-33.830503-33.828457 76.241428-76.186169c11.000542-11.001565 11.000542-28.824489 0-39.825031-1.981121-1.980097-4.366448-3.186576-6.707772-4.455475-0.728594-0.430812-1.207501-1.11745-1.98419-1.485841-0.195451-0.093121-0.403183-0.138146-0.597611-0.231267-0.021489-0.010233-0.049119-0.013303-0.069585-0.024559-70.172199-33.099862-154.021909-18.550495-208.912054 36.394908-51.477418 51.477418-65.428152 125.857453-43.190684 190.43626l-49.031717 48.994878c-35.81367-2.816139-71.238484 8.969279-97.060593 34.839482-48.186466 48.186466-48.186466 126.628002 0 174.814468 24.093744 24.093744 55.722092 36.140105 87.406722 36.140105 31.629371 0 63.258743-12.046361 87.352487-36.140105 25.443485-25.444509 37.363979-60.181661 35.032888-95.438652l49.743938-49.7818c19.48068 6.703679 39.709397 10.726296 60.113099 10.726295 47.197952 0 94.392834-17.987676 130.313951-53.906747 54.216809-54.16155 68.958558-136.711661 37.426401-206.361975z m-325.94042 268.02436c-0.275269 0.275269-0.354064 0.645706-0.615007 0.928139a27.346835 27.346835 0 0 0-5.329379 8.020674c-0.112564 0.271176-0.218988 0.525979-0.326435 0.799202-1.245364 3.106758-1.860371 6.335289-1.908466 9.794063-0.00307 0.261966-0.00307 0.506537 0.00307 0.766457 0.024559 1.783623-0.343831 3.510964 0.034793 5.325285 4.565992 22.278399-2.309602 45.216831-18.37244 61.278645-26.238594 26.238594-68.980048 26.128077-95.109148 0-26.238594-26.238594-26.238594-68.923766 0-95.163383 16.337083-16.281825 39.606043-22.937408 62.048171-18.152429 0.99056 0.218988 1.911536-0.059352 2.894934 0.054236 1.047866 0.116657 2.044566 0.604774 3.100617 0.604774 0.86367 0 1.678222-0.416486 2.5378-0.495281a26.578332 26.578332 0 0 0 5.672186-1.104147 27.234271 27.234271 0 0 0 4.201695-1.666966c2.000564-0.99363 3.761674-2.189875 5.465479-3.63376 0.639566-0.536212 1.434675-0.74906 2.036379-1.351788l46.308699-46.270836c4.854565 6.321986 9.403161 12.81691 15.188934 18.602683 5.786797 5.785773 12.280698 10.334369 18.602683 15.187911l-46.434565 46.476521z m248.688989-101.488439c-49.947576 49.891294-131.082454 50.001811-181.03003 0-49.891294-49.891294-49.891294-131.138736 0-181.03003 28.019147-28.061103 66.920132-40.616046 104.929818-36.360115l-50.197263 50.167586c-8.635681 8.635681-13.367449 20.077268-13.31219 32.28838 0 12.213159 4.786003 23.598464 13.31219 32.069393L774.711354 639.907135c8.856715 8.746198 20.462031 13.146415 32.124651 13.146415s23.323195-4.400217 32.235169-13.257955l49.132-49.16577c3.571339 37.340443-8.79941 75.393107-36.316113 102.909811z" /></svg>