<?xml version="1.0" standalone="no"?><!DOCTYPE svg PUBLIC "-//W3C//DTD SVG 1.1//EN" "http://www.w3.org/Graphics/SVG/1.1/DTD/svg11.dtd"><svg class="icon" width="200px" height="200.00px" viewBox="0 0 1024 1024" version="1.1" xmlns="http://www.w3.org/2000/svg"><path  d="M373.02584 616.232472c115.140665 0 208.462827-93.322162 208.462827-208.462827s-93.322162-208.462827-208.462827-208.462827S164.563013 292.62898 164.563013 407.769645 257.885175 616.232472 373.02584 616.232472zM373.02584 258.857042c82.20478 0 148.912603 66.639033 148.912603 148.912603 0 82.20478-66.639033 148.912603-148.912603 148.912603s-148.912603-66.707823-148.912603-148.912603C224.113237 325.496075 290.82106 258.857042 373.02584 258.857042zM407.769645 616.232472c-211.103272 0-382.18185 171.078578-382.18185 382.18185l69.487609 0c0-172.676603 140.017638-312.694241 312.694241-312.694241s312.694241 140.017638 312.694241 312.694241l69.487609 0C789.951495 787.31105 618.872916 616.232472 407.769645 616.232472zM824.695299 234.050622c0-115.140665-93.322162-208.462827-208.462827-208.462827-92.348532 0-169.759238 60.455067-197.137314 143.631714 19.804216 3.822207 38.495458 10.353647 56.285387 18.622453 19.525531-59.481436 74.839051-102.702178 140.851927-102.702178 82.20478 0 148.912603 66.639033 148.912603 148.912603 0 82.20478-66.639033 148.912603-148.912603 148.912603-0.834289 0-1.666814-0.208131-2.501102-0.278684 0.834289 8.33936 2.501102 16.468824 2.501102 25.085105 0 11.812329-1.876709 23.069054-3.474733 34.396331 1.181762 0 2.292971 0.347473 3.474733 0.347473C731.373137 442.513449 824.695299 349.191287 824.695299 234.050622zM616.232472 442.513449c-1.181762 0-2.36176 0.139342-3.543522 0.208131-3.682864 25.501367-11.187935 49.544052-22.165976 71.851133 8.61628-0.694947 16.885087-2.571655 25.711262-2.571655 172.676603 0 312.694241 140.017638 312.694241 312.694241l69.487609 0C998.416086 613.592028 827.335744 442.513449 616.232472 442.513449z" /></svg>