<?xml version="1.0" standalone="no"?><!DOCTYPE svg PUBLIC "-//W3C//DTD SVG 1.1//EN" "http://www.w3.org/Graphics/SVG/1.1/DTD/svg11.dtd"><svg t="1587716910715" class="icon" viewBox="0 0 1024 1024" version="1.1" xmlns="http://www.w3.org/2000/svg" p-id="1197" xmlns:xlink="http://www.w3.org/1999/xlink" width="200" height="200"><defs><style type="text/css"></style></defs><path d="M512.31542 175.521465a32.384034 32.384034 0 0 0-32.384034 32.384034v349.747569a32.384034 32.384034 0 0 0 32.384034 32.384034h211.791584a32.384034 32.384034 0 0 0 0-64.768068H544.699455v-317.363535a32.384034 32.384034 0 0 0-32.384035-32.384034z" fill="#666666" p-id="1198"></path><path d="M991.599126 479.931386a32.384034 32.384034 0 0 0-32.384034 32.384034 447.547352 447.547352 0 1 1-124.354691-309.591366h-45.337648a32.384034 32.384034 0 0 0 0 64.768068h125.002372a32.384034 32.384034 0 0 0 32.384034-32.384034V109.458035a32.384034 32.384034 0 1 0-64.768068 0v49.223732a511.66774 511.66774 0 1 0 141.842069 353.633653 32.384034 32.384034 0 0 0-32.384034-32.384034z"  p-id="1199"></path></svg>