<?xml version="1.0" standalone="no"?><!DOCTYPE svg PUBLIC "-//W3C//DTD SVG 1.1//EN" "http://www.w3.org/Graphics/SVG/1.1/DTD/svg11.dtd"><svg t="1587716917768" class="icon" viewBox="0 0 1024 1024" version="1.1" xmlns="http://www.w3.org/2000/svg" p-id="1442" xmlns:xlink="http://www.w3.org/1999/xlink" width="200" height="200"><defs><style type="text/css"></style></defs><path d="M829.29208889 688.29866667V448.37546667c0-164.2496-116.75875555-300.7488-268.74311111-325.00622222v-96.8248889h-97.08657778v96.84764445c-151.89333333 24.33706667-268.54968889 160.79075555-268.54968889 324.96071111 0 12.97066667-0.04551111 38.22933333-0.04551111 38.32035556v200.33991111c0 34.69084445-7.87342222 116.9408-80.75946667 131.52711111L75.09333333 826.368v90.9312h168.22044445l173.1584 0.35271111c8.15786667 45.37457778 47.80942222 79.80373333 95.52782222 79.80373334 47.58186667 0 87.1424-34.23573333 95.45955555-79.4168889l173.13564445 0.35271112H948.90666667v-90.9312l-39.0144-7.80515556c-72.74951111-14.57493333-80.61155555-96.65422222-80.60017778-131.35644444zM260.47146667 820.23537778c20.3776-36.57955555 31.49368889-81.90862222 31.49368888-133.37031111V486.76408889s0.04551111-25.37244445 0.04551112-38.4c0-127.78382222 98.73635555-231.74257778 220.10311111-231.74257778s220.10311111 103.95875555 220.10311111 231.74257778V689.95982222c0.22755555 50.5856 11.264 95.19786667 31.3344 131.29955556l-503.07982222-1.024z" p-id="1443"></path><path d="M258.62826667 205.53955555l-61.83822222-74.84302222C82.42062222 225.1776 16.83911111 364.37333333 16.83911111 512.56888889h97.08657778c0-119.14808889 52.74737778-231.05991111 144.70257778-307.02933334zM910.07431111 512.56888889h97.08657778c0-148.30933333-65.67253333-287.57333333-180.16711111-382.06577778l-61.80408889 74.87715556C857.25866667 281.37244445 910.07431111 393.32977778 910.07431111 512.56888889z" p-id="1444"></path></svg>