<?xml version="1.0" standalone="no"?><!DOCTYPE svg PUBLIC "-//W3C//DTD SVG 1.1//EN" "http://www.w3.org/Graphics/SVG/1.1/DTD/svg11.dtd"><svg t="1587716901457" class="icon" viewBox="0 0 1024 1024" version="1.1" xmlns="http://www.w3.org/2000/svg" p-id="951" xmlns:xlink="http://www.w3.org/1999/xlink" width="200" height="200"><defs><style type="text/css"></style></defs><path d="M619.15880562 460.74428416c-1.76507107-1.29236765-3.40905643-2.90840917-4.70142293-4.69793109-89.2583515-89.2001371-161.60415289-161.34102243-168.76689636-168.32912157-73.52174023-72.96171349-17.73570617-166.65486563 68.58629348-199.5694865 20.20168363-7.60401123 40.75498382-9.71720704 61.89276046-12.68383062 5.11009109-0.58680434 15.85537024-0.67529159 26.54476288-0.73350598 22.19612046-0.32250994 20.43454237-30.27050723-0.11759389-33.38266738-11.51138475-1.64398421-24.37102365-3.52315733-30.77348238-3.99469682-115.56559872-10.36222578-238.76547925 31.09249934-355.27182791 147.65939143-8.27930169 8.48538283-16.97076451 16.824064-25.36882518 25.33855346-20.78616007 84.76766549-76.57452089 108.81268736-103.35214364 115.56559872-12.4474789-10.71617138-31.41617323-10.24696093-43.33739008 1.61604153-2.58240626 2.64178574-4.69793109 5.51875811-6.10789148 8.74967722L13.37259691 361.00262002c-12.33221291 12.27399851-12.33221291 32.09262877 0 44.27697607l121.6734902 121.17400804c12.09586119 12.15524067 32.1194075 12.15524067 44.39340601 0l23.48848811-23.54786759c3.58369963-1.46701198 6.93104867-3.69896562 9.86623658-6.63415353 10.51125533-10.42276921 12.21345507-26.22108899 5.16714155-38.49392356 0.0582144-0.08615822 0.0582144-0.23402382 0.11759389-0.38188828 0.64734777-1.9676581 1.29236765-4.0808539 2.11435974-6.37102308 1.05601593-2.87813746 2.29016803-5.7260032 3.52315734-8.63324729 0.76261376-1.20271645 1.35058205-2.61267797 2.05614535-4.05058218 1.93855147-3.34734791 4.2869339-6.42923747 6.51888754-9.30737494 4.93078983-5.52108715 10.80465863-10.39366144 18.55537038-13.41850055 49.32768882-19.40763421 97.95097827 12.59650845 121.73170461 32.18111488 1.93971541 1.70219975 77.10427591 76.95524523 167.65382997 167.77142386l0 0 37.64165859 37.69870905 0 0c132.41876935 132.83209443 280.16781085 280.93042461 280.16781085 280.9304246l122.84593493-112.27762915c0 0-130.94826439-130.60130475-263.19471844-262.96185856l0 0L619.15880562 460.74428416z" p-id="952"></path><path d="M1006.02261618 119.97607936L896.20863545 41.96365312c-15.15213597-10.77555086-36.17115477-7.22561479-46.86054742 8.13376512-6.46067314 8.77878499-7.16274347 19.61255026-4.22755555 29.242434-7.16507136 1.20271645-13.50815175 5.13803378-18.7917221 10.56947086l-0.81966421-0.61591211L624.0884315 373.39421128c5.8738688 20.9631323 4.4662363 43.65990002-4.92962475 64.30168746l31.3556298 22.54890212-13.15420501 18.58680604c-7.75187683-7.66338958-15.38615865-15.23945813-22.90284772-22.78525383 1.29236765 1.79068587 2.93635186 3.40556345 4.70142293 4.69793109l98.5331257 98.21294478 0 0c-14.20789305-13.94592654-28.42393486-28.15731143-42.51307008-42.24993848l18.08383089-25.57490518 29.94683335 21.58137344c16.68085533-15.91591367 37.70103808-25.13363741 59.78305764-26.42483996l198.83598052-280.1666469 2.9351879-3.90620956-0.93958598-0.55653262c3.64307911-6.87166919 5.05071161-14.24165661 3.87593784-21.17037739 10.09909533-0.26545949 19.84890197-4.66998727 26.18848825-13.62341661C1024.69441536 151.80441259 1021.17358706 130.78073686 1006.02261618 119.97607936zM706.77084387 372.92500082l-18.43894044-13.00634055 149.5059638-210.55111737 18.20491776 13.0657189L706.77084387 372.92500082zM775.24070741 421.75204238l-18.2060817-13.09482666 149.39419079-210.52084566 18.43777649 12.97723279L775.24070741 421.75204238z" p-id="953"></path><path d="M416.09294165 790.09075428L412.62683477 787.62594077 360.54093141 837.07005952 315.44196323 926.44367588 362.18375168 959.79956452 432.59449571 888.39334912 462.36551965 822.97510344 459.07755008 820.74431374 577.87290283 653.26629206 540.23124423 615.56758301Z" p-id="954"></path></svg>