<?xml version="1.0" standalone="no"?><!DOCTYPE svg PUBLIC "-//W3C//DTD SVG 1.1//EN" "http://www.w3.org/Graphics/SVG/1.1/DTD/svg11.dtd"><svg t="1587716907278" class="icon" viewBox="0 0 1024 1024" version="1.1" xmlns="http://www.w3.org/2000/svg" p-id="1075" xmlns:xlink="http://www.w3.org/1999/xlink" width="200" height="200"><defs><style type="text/css"></style></defs><path d="M540.93255111 298.41180444c60.79943111 0 110.08455111-50.7904 110.08455111-113.47057778 0-35.26087111-15.59779555-66.76252445-40.08391111-87.58385778 2.09464889 7.14296889 3.57262222 14.57265778 3.57262222 22.42787556 0 42.83050667-33.67367111 77.53500445-75.21166222 77.53500444-41.54823111 0-75.22417778-34.70449778-75.22417778-77.53500444 0-6.27484445 0.91022222-12.29027555 2.28693334-18.12366222-21.76796445 20.72917333-35.50208 50.31253333-35.50208 83.27850666C430.85596445 247.62140444 480.14108445 298.41180444 540.93255111 298.41180444zM537.42819555 153.75018666c40.51285333 0 73.35480889-33.84775111 73.3548089-75.61671111 0-41.75530667-32.84195555-75.60305778-73.3548089-75.60305777-40.51399111 0-73.35708445 33.84775111-73.35708444 75.60305777C464.07111111 119.90243555 496.91306667 153.75018666 537.42819555 153.75018666zM19.12490667 831.89304888l177.27715555 70.7436089c-14.29845333-29.47982222-71.48885333-474.53297778-71.48885333-474.53297778L19.12490667 831.89304888zM739.66250667 1064.74837333l11.44718222-173.89681778-397.44398222 41.26492445L739.66250667 1064.74837333zM859.74926222 106.83619555l-192.68835555 29.30915556c11.59850667 21.42776889 18.26702222 46.08568889 18.26702222 72.37745777 0 82.20330667-64.63374222 148.84864-144.39310222 148.84864-79.74001778 0-144.38513778-66.64647111-144.38513778-148.84864 0-10.90218667 1.21287111-21.50513778 3.35644444-31.7485511l-237.824 36.16768c8.57429333 229.89937778 111.51473778 686.75242667 111.51473778 686.75242666l740.56362667-129.68846222C962.68856889 716.94449778 859.74926222 106.83619555 859.74926222 106.83619555zM301.94915555 469.94887111l315.09390223-46.70691556 9.36391111 35.06517333-315.07683556 46.7205689L301.94915555 469.94887111zM369.60483555 735.80657778l-11.44604444-39.9928889 387.79790222-56.8832 11.45742222 39.99175112L369.60483555 735.80657778zM346.11313778 620.63843555l-15.29287111-39.68341333 499.52085333-67.72053334 15.29969778 39.68L346.11313778 620.63843555z" p-id="1076"></path></svg>