<?xml version="1.0" encoding="utf-8"?>
<!-- Generator: Adobe Illustrator 16.0.0, SVG Export Plug-In . SVG Version: 6.00 Build 0)  -->
<!DOCTYPE svg PUBLIC "-//W3C//DTD SVG 1.1//EN" "http://www.w3.org/Graphics/SVG/1.1/DTD/svg11.dtd">
<svg version="1.1" id="图层_1" xmlns="http://www.w3.org/2000/svg" xmlns:xlink="http://www.w3.org/1999/xlink" x="0px" y="0px"
	 width="16px" height="16px" viewBox="0 0 16 16" enable-background="new 0 0 16 16" xml:space="preserve">
<path fill="#FFFFFF" d="M12.787,8.546H9.449c-0.106,0-0.208,0.022-0.3,0.061C8.797,8.682,8.534,8.995,8.534,9.369v3.432
	c0,1.706,1.388,3.096,3.095,3.096h1.158c1.707,0,3.096-1.39,3.096-3.096v-1.158C15.883,9.936,14.494,8.546,12.787,8.546z
	 M14.322,12.801c0,0.847-0.689,1.534-1.535,1.534h-1.158c-0.846,0-1.535-0.688-1.535-1.534v-2.694h2.693
	c0.846,0,1.535,0.69,1.535,1.536V12.801z"/>
<path fill="#FFFFFF" d="M6.88,8.606C6.788,8.568,6.687,8.546,6.582,8.546H3.243c-1.707,0-3.096,1.39-3.096,3.097v1.158
	c0,1.706,1.389,3.096,3.096,3.096H4.4c1.708,0,3.096-1.39,3.096-3.096V9.369C7.497,8.995,7.232,8.682,6.88,8.606z M5.936,12.801
	c0,0.847-0.688,1.534-1.536,1.534H3.243c-0.847,0-1.536-0.688-1.536-1.534v-1.158c0-0.846,0.689-1.536,1.536-1.536h2.693V12.801z"/>
<path fill="#FFFFFF" d="M3.243,7.483h3.338c0.106,0,0.207-0.021,0.299-0.06C7.232,7.348,7.496,7.035,7.496,6.66V3.229
	c0-1.707-1.388-3.095-3.096-3.095H3.243c-1.707,0-3.096,1.388-3.096,3.095v1.159C0.147,6.095,1.536,7.483,3.243,7.483z M1.708,3.229
	c0-0.846,0.689-1.534,1.536-1.534H4.4c0.847,0,1.536,0.688,1.536,1.534v2.694H3.243c-0.847,0-1.536-0.688-1.536-1.536V3.229z"/>
<path fill="#FFFFFF" d="M12.787,0.134h-1.158c-1.707,0-3.097,1.388-3.097,3.095V6.66c0,0.375,0.265,0.688,0.617,0.763
	c0.092,0.038,0.193,0.06,0.3,0.06h3.338c1.707,0,3.096-1.388,3.096-3.096V3.229C15.883,1.522,14.494,0.134,12.787,0.134z
	 M14.322,4.387c0,0.847-0.689,1.536-1.535,1.536h-2.693V3.229c0-0.846,0.689-1.534,1.535-1.534h1.158
	c0.846,0,1.535,0.688,1.535,1.534V4.387z"/>
</svg>
