<?xml version="1.0" encoding="utf-8"?>
<!-- Generator: Adobe Illustrator 16.0.0, SVG Export Plug-In . SVG Version: 6.00 Build 0)  -->
<!DOCTYPE svg PUBLIC "-//W3C//DTD SVG 1.1//EN" "http://www.w3.org/Graphics/SVG/1.1/DTD/svg11.dtd">
<svg version="1.1" id="图层_1" xmlns="http://www.w3.org/2000/svg" xmlns:xlink="http://www.w3.org/1999/xlink" x="0px" y="0px"
	 width="16px" height="16px" viewBox="0 0 16 16" enable-background="new 0 0 16 16" xml:space="preserve">
<path fill="#FFFFFF" d="M11.841,7.581L9.146,7.571c1.386-0.496,2.434-1.806,2.434-3.359c0-1.975-1.601-3.584-3.584-3.584
	c-1.984,0-3.583,1.601-3.583,3.575c0,1.563,1.038,2.873,2.432,3.359L4.14,7.581l-3.846,7.477h6.541V7.609h2.311v7.458h6.542
	L11.841,7.581z M6.208,4.203c0-0.982,0.805-1.788,1.787-1.788c0.992,0,1.787,0.805,1.787,1.788c0,0.992-0.805,1.787-1.787,1.787
	C7.003,5.99,6.208,5.195,6.208,4.203z"/>
</svg>
