<?xml version="1.0" encoding="utf-8"?>
<!-- Generator: Adobe Illustrator 16.0.0, SVG Export Plug-In . SVG Version: 6.00 Build 0)  -->
<!DOCTYPE svg PUBLIC "-//W3C//DTD SVG 1.1//EN" "http://www.w3.org/Graphics/SVG/1.1/DTD/svg11.dtd">
<svg version="1.1" id="图层_1" xmlns="http://www.w3.org/2000/svg" xmlns:xlink="http://www.w3.org/1999/xlink" x="0px" y="0px"
	 width="16px" height="16px" viewBox="0 0 16 16" enable-background="new 0 0 16 16" xml:space="preserve">
<path fill="#FFFFFF" d="M1.415,13.295h5.283v1.319H0.094V1.41h6.604v1.3H1.394L1.415,13.295z M9.36,13.298h1.3v1.301h-1.3V13.298z
	 M14.63,13.302h1.3v1.3h-1.3V13.302z M14.63,10.662h1.3v1.302h-1.3V10.662z M12.002,13.302h1.3v1.3h-1.3V13.302z M14.63,6.701h1.3
	v2.627h-1.3V6.701z M14.63,4.06h1.3V5.36h-1.3V4.06z M12.002,1.439h1.3V2.74h-1.3V1.439z M14.63,1.439h1.3V2.74h-1.3V1.439z
	 M9.36,1.439h1.3V2.74h-1.3V1.439z M7.353,0.093h1.301v15.838H7.353V0.093z"/>
</svg>
