<?xml version="1.0" encoding="utf-8"?>
<!-- Generator: Adobe Illustrator 16.0.0, SVG Export Plug-In . SVG Version: 6.00 Build 0)  -->
<!DOCTYPE svg PUBLIC "-//W3C//DTD SVG 1.1//EN" "http://www.w3.org/Graphics/SVG/1.1/DTD/svg11.dtd">
<svg version="1.1" id="图层_1" xmlns="http://www.w3.org/2000/svg" xmlns:xlink="http://www.w3.org/1999/xlink" x="0px" y="0px"
	 width="16px" height="16px" viewBox="0 0 16 16" enable-background="new 0 0 16 16" xml:space="preserve">
<path fill="#FFFFFF" d="M11.476,2.968c-2.26-0.712-4.684-0.712-6.945,0C4.131,3.091,3.807,3.386,3.647,3.772
	C3.484,4.157,3.496,4.594,3.678,4.971l1.111,2.294c0.24,0.497,0.729,0.799,1.254,0.799c0.104,0,0.208-0.013,0.309-0.035l0.007-0.001
	c0.538-0.131,1.089-0.197,1.643-0.196h0.02l0.655,0.04c0.325,0.028,0.649,0.081,0.968,0.156L9.65,8.028
	c0.103,0.023,0.207,0.035,0.313,0.035c0.524,0,1.013-0.302,1.252-0.799l1.109-2.292c0.183-0.376,0.195-0.813,0.034-1.198
	C12.199,3.387,11.876,3.092,11.476,2.968z M11.418,4.531l-1.111,2.296v0.001c-0.081,0.167-0.255,0.257-0.426,0.218
	C9.536,6.966,9.187,6.908,8.834,6.874l1.178-2.039c0.14-0.241,0.056-0.548-0.185-0.688C9.586,4.007,9.278,4.09,9.139,4.331
	L7.695,6.83C7.165,6.85,6.639,6.922,6.124,7.047c-0.172,0.038-0.347-0.053-0.428-0.22l-1.11-2.296
	c-0.057-0.116-0.06-0.25-0.01-0.368C4.621,4.052,4.712,3.966,4.827,3.93l0.005-0.001c2.063-0.653,4.278-0.653,6.343,0l0.002,0.001
	c0.115,0.036,0.207,0.122,0.251,0.233C11.479,4.281,11.474,4.415,11.418,4.531z"/>
<path fill="#FFFFFF" d="M14.37,0.124H1.634c-0.833,0-1.509,0.675-1.51,1.509l0,0v12.727c0,0.834,0.676,1.509,1.509,1.509H14.37
	c0.833,0,1.507-0.675,1.509-1.509V1.633C15.877,0.799,15.203,0.124,14.37,0.124z M14.871,13.988c0,0.48-0.392,0.873-0.875,0.873l0,0
	H2.005c-0.482,0-0.873-0.393-0.873-0.873l0,0V2.004c0-0.482,0.391-0.873,0.873-0.873l0,0h11.991c0.483,0,0.875,0.39,0.875,0.872
	c0,0,0,0,0,0V13.988z"/>
</svg>
