<?xml version="1.0" encoding="utf-8"?>
<!-- Generator: Adobe Illustrator 16.0.0, SVG Export Plug-In . SVG Version: 6.00 Build 0)  -->
<!DOCTYPE svg PUBLIC "-//W3C//DTD SVG 1.1//EN" "http://www.w3.org/Graphics/SVG/1.1/DTD/svg11.dtd">
<svg version="1.1" id="图层_1" xmlns="http://www.w3.org/2000/svg" xmlns:xlink="http://www.w3.org/1999/xlink" x="0px" y="0px"
	 width="16px" height="16px" viewBox="0 0 16 16" enable-background="new 0 0 16 16" xml:space="preserve">
<path fill="#FFFFFF" d="M15.54,5.424h-1.484c-0.068,0-0.135,0.019-0.194,0.054l-0.668-2.036c-0.214-1.158-1.022-1.715-2.013-1.715
	H4.892c-1.139,0-1.831,0.75-2.013,1.715L2.207,5.483C2.146,5.446,2.074,5.425,2.001,5.424H0.516
	C0.287,5.425,0.102,5.612,0.103,5.841v0v0.362c0,0.229,0.185,0.416,0.414,0.417l0.563,0.097c-0.178,0.35-0.28,0.751-0.28,1.217
	l-0.208,2.402c0,0.072,0.005,0.143,0.014,0.212c-0.009,0.046-0.014,0.092-0.014,0.136v2.889c-0.001,0.41,0.329,0.742,0.738,0.744
	l0,0h1.126c0.409-0.002,0.739-0.334,0.736-0.743v-0.001v-0.929h9.683v0.929c-0.002,0.41,0.328,0.742,0.737,0.744l0,0h1.127
	c0.409-0.002,0.739-0.334,0.738-0.743v-0.001v-2.889c-0.001-0.045-0.005-0.091-0.015-0.136c0.01-0.07,0.014-0.142,0.015-0.212
	L15.27,7.935c0-0.467-0.102-0.868-0.28-1.219l0.551-0.095c0.229-0.001,0.414-0.188,0.413-0.417V5.842
	C15.955,5.613,15.771,5.426,15.54,5.424C15.541,5.424,15.541,5.424,15.54,5.424z M3.375,4.997l0.491-1.321l0.007-0.031
	c0.049-0.267,0.159-0.314,0.319-0.521h7.695c0.164,0.211,0.265,0.266,0.31,0.518l0.499,1.353l0.182,0.736
	c-0.04,0.539-0.682,0.964-1.215,0.964H4.408c-0.535,0-1.176-0.425-1.217-0.964L3.375,4.997z M3.719,11.277
	c-0.617,0-1.117-0.506-1.117-1.129c0-0.622,0.5-1.127,1.117-1.127s1.117,0.504,1.117,1.127C4.836,10.772,4.336,11.277,3.719,11.277z
	 M9.96,10.444c0,0.185-0.149,0.334-0.333,0.335c-0.001,0-0.001,0-0.001,0H6.492c-0.184-0.001-0.333-0.15-0.332-0.335V9.5
	c0-0.185,0.148-0.333,0.333-0.333h0h3.134c0.184,0,0.333,0.148,0.333,0.333V10.444z M12.351,11.277
	c-0.616,0-1.117-0.506-1.117-1.129c0-0.622,0.501-1.128,1.117-1.128c0.617,0,1.117,0.505,1.117,1.128S12.968,11.277,12.351,11.277z"
	/>
</svg>
