<?xml version="1.0" encoding="utf-8"?>
<!-- Generator: Adobe Illustrator 16.0.0, SVG Export Plug-In . SVG Version: 6.00 Build 0)  -->
<!DOCTYPE svg PUBLIC "-//W3C//DTD SVG 1.1//EN" "http://www.w3.org/Graphics/SVG/1.1/DTD/svg11.dtd">
<svg version="1.1" id="图层_1" xmlns="http://www.w3.org/2000/svg" xmlns:xlink="http://www.w3.org/1999/xlink" x="0px" y="0px"
	 width="16px" height="16px" viewBox="0 0 16 16" enable-background="new 0 0 16 16" xml:space="preserve">
<path fill="#FFFFFF" d="M3.56,6.147c0.273,0,0.496-0.222,0.496-0.495V5.267c0.173-0.245,1.513-0.794,4.029-0.794
	c2.515,0,3.857,0.549,4.029,0.794v0.386c0,0.273,0.223,0.495,0.495,0.495c0.273,0,0.496-0.222,0.496-0.495V5.235
	c0-1.272-2.67-1.686-4.546-1.742V3.029c0.572-0.204,0.983-0.75,0.983-1.394c0-0.815-0.663-1.479-1.479-1.479
	c-0.815,0-1.479,0.664-1.479,1.479c0,0.644,0.412,1.189,0.985,1.394v0.465C5.691,3.558,3.066,3.976,3.066,5.238v0.415
	C3.065,5.926,3.287,6.147,3.56,6.147z M8.061,1.144c0.271,0,0.492,0.221,0.492,0.492c0,0.272-0.22,0.492-0.492,0.492
	s-0.492-0.22-0.492-0.492C7.569,1.365,7.79,1.144,8.061,1.144z M5.847,11.117c0.393-0.13,0.677-0.501,0.677-0.937V9.147
	c0-0.545-0.443-0.987-0.989-0.987H5.505L3.782,6.59C3.777,6.587,3.773,6.583,3.768,6.58C3.759,6.572,3.75,6.565,3.74,6.559
	L3.713,6.543c-0.009-0.006-0.02-0.011-0.03-0.015c-0.009-0.003-0.02-0.007-0.03-0.01C3.643,6.515,3.632,6.513,3.623,6.511
	c-0.01-0.001-0.021-0.003-0.031-0.003C3.582,6.506,3.571,6.506,3.56,6.506c-0.01,0-0.021,0-0.031,0.001
	c-0.011,0-0.021,0.002-0.032,0.003C3.486,6.513,3.476,6.516,3.465,6.518c-0.01,0.003-0.019,0.007-0.03,0.01
	c-0.011,0.004-0.019,0.009-0.03,0.015L3.378,6.559C3.37,6.565,3.359,6.572,3.35,6.58C3.347,6.583,3.341,6.587,3.336,6.59L1.613,8.16
	h-0.03c-0.545,0-0.988,0.442-0.988,0.987v1.033c0,0.438,0.284,0.807,0.676,0.937c0.371,0.901,1.257,1.536,2.289,1.536
	C4.592,12.653,5.477,12.017,5.847,11.117z M3.56,7.279l0.966,0.879H2.593L3.56,7.279z M3.56,11.663
	c-0.599,0-1.114-0.354-1.349-0.867h1.394c0.183,0,0.33-0.147,0.33-0.329c0-0.183-0.148-0.33-0.33-0.33H1.627
	c-0.014,0-0.028,0.003-0.042,0.004V9.147h3.949v0.993c-0.013-0.001-0.029-0.007-0.044-0.007H4.712c-0.182,0-0.329,0.149-0.329,0.331
	c0,0.18,0.147,0.33,0.329,0.33h0.197C4.675,11.307,4.161,11.663,3.56,11.663z M14.554,8.16l-1.725-1.57
	c-0.007-0.003-0.01-0.006-0.015-0.01c-0.01-0.007-0.018-0.014-0.028-0.021l-0.025-0.016c-0.012-0.006-0.021-0.011-0.03-0.015
	c-0.011-0.003-0.02-0.007-0.03-0.01s-0.019-0.005-0.03-0.007c-0.011-0.001-0.021-0.003-0.032-0.003
	c-0.009-0.001-0.021-0.001-0.03-0.001c-0.011,0-0.022,0-0.032,0.001c-0.011,0.002-0.021,0.002-0.032,0.003
	c-0.011,0.002-0.02,0.005-0.029,0.007c-0.011,0.003-0.021,0.007-0.029,0.01c-0.012,0.004-0.02,0.009-0.029,0.015l-0.026,0.016
	c-0.011,0.006-0.02,0.013-0.028,0.021c-0.005,0.004-0.009,0.007-0.014,0.01l-1.723,1.57H10.59c-0.546,0-0.988,0.442-0.988,0.987
	v1.033c0,0.438,0.283,0.807,0.676,0.937c0.37,0.901,1.257,1.536,2.289,1.536c1.031,0,1.917-0.635,2.288-1.536
	c0.393-0.13,0.678-0.501,0.678-0.937V9.147C15.526,8.607,15.092,8.169,14.554,8.16z M12.607,7.279l0.967,0.879h-1.933L12.607,7.279z
	 M12.563,11.663c-0.6,0-1.115-0.354-1.351-0.867h1.395c0.183,0,0.329-0.147,0.329-0.329c0-0.183-0.149-0.33-0.329-0.33H10.63
	c-0.014,0-0.027,0.003-0.042,0.004V9.147h3.949v0.993c-0.014-0.001-0.029-0.007-0.044-0.007h-0.778
	c-0.182,0-0.329,0.149-0.329,0.331c0,0.18,0.147,0.33,0.329,0.33h0.196C13.676,11.307,13.162,11.663,12.563,11.663z"/>
<path fill="#FFFFFF" d="M9.982,13.314H8.557v-7.87c0-0.273-0.222-0.495-0.496-0.495c-0.273,0-0.495,0.222-0.495,0.495v7.87H6.185
	c-0.546,0-0.988,0.442-0.988,0.988v0.614c0,0.546,0.442,0.987,0.988,0.987h3.798c0.545,0,0.987-0.441,0.987-0.987v-0.614
	C10.97,13.759,10.527,13.314,9.982,13.314z M9.982,14.918H6.185v-0.615h3.798V14.918z"/>
</svg>
