<?xml version="1.0" encoding="utf-8"?>
<!-- Generator: Adobe Illustrator 16.0.0, SVG Export Plug-In . SVG Version: 6.00 Build 0)  -->
<!DOCTYPE svg PUBLIC "-//W3C//DTD SVG 1.1//EN" "http://www.w3.org/Graphics/SVG/1.1/DTD/svg11.dtd">
<svg version="1.1" id="图层_1" xmlns="http://www.w3.org/2000/svg" xmlns:xlink="http://www.w3.org/1999/xlink" x="0px" y="0px"
	 width="16px" height="16px" viewBox="0 0 16 16" enable-background="new 0 0 16 16" xml:space="preserve">
<path fill="#FFFFFF" d="M10.813,0.095H2.309c-1.315,0-1.134,0.644-1.134,1.701v12.473c0,1.405-0.181,1.699,1.134,1.699h10.772
	c1.557,0,1.7-0.345,1.7-1.699V4.063C12.4,1.734,13.991,2.9,10.813,0.095z M13.647,13.7c0,1.026-0.04,1.134-1.135,1.134h-9.07
	c-0.908,0-1.134-0.008-1.134-1.134V2.362c0-1.586-0.018-1.133,1.134-1.133h6.804c0.007,1.458,0,2.267,0,2.267
	c0,1.184,0.514,1.701,1.7,1.701h1.701V13.7z M4.576,8.031h7.37V6.897h-7.37V8.031z M4.576,10.866h7.37V9.731h-7.37V10.866z"/>
</svg>
