<?xml version="1.0" encoding="utf-8"?>
<!-- Generator: Adobe Illustrator 16.0.0, SVG Export Plug-In . SVG Version: 6.00 Build 0)  -->
<!DOCTYPE svg PUBLIC "-//W3C//DTD SVG 1.1//EN" "http://www.w3.org/Graphics/SVG/1.1/DTD/svg11.dtd">
<svg version="1.1" id="图层_1" xmlns="http://www.w3.org/2000/svg" xmlns:xlink="http://www.w3.org/1999/xlink" x="0px" y="0px"
	 width="16px" height="16px" viewBox="0 0 16 16" enable-background="new 0 0 16 16" xml:space="preserve">
<path fill="#FFFFFF" d="M15.615,0.094v2.38h-4.414c-1.086,0-1.892,0.283-2.465,0.866C7.923,4.17,7.797,5.392,7.778,5.764v1.71
	l2.481-0.98c0.084-0.033,0.178-0.006,0.232,0.065c0.054,0.072,0.053,0.171-0.001,0.241l-3.748,4.875
	c-0.038,0.048-0.096,0.079-0.158,0.079c-0.061,0-0.119-0.031-0.157-0.079L2.68,6.799C2.652,6.763,2.639,6.721,2.639,6.678
	c0-0.042,0.013-0.084,0.04-0.12C2.732,6.487,2.827,6.46,2.911,6.493l2.481,0.98l0.004-1.261c0,0,0.006-0.121,0.021-0.289l-0.021,0
	c-0.002-0.106-0.029-2.546,1.643-4.25c1.029-1.048,2.428-1.58,4.164-1.58H15.615z M12.839,12.362H0.818
	c-0.225,0-0.408,0.184-0.408,0.409v2.752c0,0.227,0.183,0.408,0.408,0.408h12.021c0.225,0,0.409-0.182,0.409-0.408v-2.752
	C13.248,12.546,13.063,12.362,12.839,12.362z"/>
</svg>
