<?xml version="1.0" encoding="utf-8"?>
<!-- Generator: Adobe Illustrator 16.0.0, SVG Export Plug-In . SVG Version: 6.00 Build 0)  -->
<!DOCTYPE svg PUBLIC "-//W3C//DTD SVG 1.1//EN" "http://www.w3.org/Graphics/SVG/1.1/DTD/svg11.dtd">
<svg version="1.1" id="图层_1" xmlns="http://www.w3.org/2000/svg" xmlns:xlink="http://www.w3.org/1999/xlink" x="0px" y="0px"
	 width="16px" height="16px" viewBox="0 0 16 16" enable-background="new 0 0 16 16" xml:space="preserve">
<path fill="#FFFFFF" d="M10.537,6.646H3.094c-0.336,0-0.544-0.223-0.544-0.588c0-0.363,0.208-0.588,0.545-0.588h7.442
	c0.337,0,0.543,0.225,0.543,0.588C11.08,6.423,10.874,6.646,10.537,6.646z M7.348,9.285H3.095c-0.336,0-0.545-0.224-0.545-0.587
	c0-0.365,0.208-0.588,0.545-0.588h4.252c0.337,0,0.544,0.223,0.544,0.588C7.892,9.062,7.685,9.285,7.348,9.285z M7.251,14.663
	c0.333-0.018,0.616,0.237,0.633,0.57c0.017,0.332-0.239,0.616-0.572,0.634c-0.021,0-0.041,0-0.061,0H2.416
	c-1.222,0-2.214-0.988-2.216-2.211V2.408c0.002-1.222,0.995-2.211,2.216-2.21h9.668c1.224-0.002,2.216,0.987,2.217,2.21l0,0v4.018
	c0,0.333-0.271,0.604-0.603,0.604c-0.335,0-0.606-0.271-0.606-0.604V2.408c0-0.556-0.45-1.005-1.008-1.005H2.417
	c-0.556,0-1.007,0.45-1.007,1.005v11.248c0,0.557,0.451,1.005,1.007,1.005h4.834V14.663z M13.922,13.023l1.744,1.748
	c0.252,0.246,0.255,0.649,0.008,0.901c-0.251,0.246-0.654,0.243-0.9-0.009l-1.748-1.743c-1.059,0.649-2.479,0.503-3.41-0.429
	C8.526,12.401,8.51,10.649,9.58,9.578c1.071-1.069,2.823-1.054,3.914,0.035C14.426,10.545,14.572,11.964,13.922,13.023z
	 M12.617,12.615c0.576-0.577,0.568-1.52-0.019-2.107c-0.589-0.585-1.531-0.595-2.107-0.019c-0.575,0.576-0.566,1.519,0.019,2.107
	C11.098,13.184,12.04,13.191,12.617,12.615z"/>
</svg>
