<?xml version="1.0" encoding="utf-8"?>
<!-- Generator: Adobe Illustrator 16.0.0, SVG Export Plug-In . SVG Version: 6.00 Build 0)  -->
<!DOCTYPE svg PUBLIC "-//W3C//DTD SVG 1.1//EN" "http://www.w3.org/Graphics/SVG/1.1/DTD/svg11.dtd">
<svg version="1.1" id="图层_1" xmlns="http://www.w3.org/2000/svg" xmlns:xlink="http://www.w3.org/1999/xlink" x="0px" y="0px"
	 width="16px" height="16px" viewBox="0 0 16 16" enable-background="new 0 0 16 16" xml:space="preserve">
<path fill="#FFFFFF" d="M15.489,15.731H4.2c-0.229,0-0.409-0.181-0.409-0.408v-3.272c0-0.229,0.181-0.41,0.409-0.41
	c0.229,0,0.409,0.181,0.409,0.41v2.863H15.08V4.442h-2.944c-0.23,0-0.409-0.18-0.409-0.409c0-0.229,0.179-0.408,0.409-0.408h3.354
	c0.229,0,0.409,0.18,0.409,0.408v11.29C15.898,15.551,15.718,15.731,15.489,15.731z"/>
<path fill="#FFFFFF" d="M11.808,12.542H0.519c-0.229,0-0.409-0.18-0.409-0.409V0.843c0-0.229,0.18-0.409,0.409-0.409h11.289
	c0.229,0,0.41,0.18,0.41,0.409v11.29C12.218,12.362,12.037,12.542,11.808,12.542z M0.928,11.723h10.471V1.251H0.928V11.723z"/>
<path fill="#FFFFFF" d="M8.863,3.952H3.464c-0.229,0-0.409-0.18-0.409-0.409c0-0.229,0.18-0.409,0.409-0.409h5.399
	c0.229,0,0.409,0.18,0.409,0.409C9.272,3.772,9.092,3.952,8.863,3.952z M11.808,6.814H6.491c-0.229,0-0.409-0.18-0.409-0.409
	c0-0.229,0.18-0.408,0.409-0.408h5.317c0.229,0,0.41,0.18,0.41,0.408C12.218,6.635,12.037,6.814,11.808,6.814z M8.863,9.678H3.464
	c-0.229,0-0.409-0.18-0.409-0.409c0-0.229,0.18-0.408,0.409-0.408h5.399c0.229,0,0.409,0.18,0.409,0.408
	C9.272,9.498,9.092,9.678,8.863,9.678z"/>
<path fill="#FFFFFF" d="M7.243,8.336c-0.106,0-0.213-0.041-0.286-0.123L5.493,6.749c-0.155-0.155-0.164-0.417,0-0.581l1.464-1.472
	c0.156-0.164,0.417-0.164,0.581,0c0.164,0.155,0.164,0.417,0,0.58L6.36,6.463l1.178,1.178c0.164,0.164,0.164,0.417,0,0.581
	C7.456,8.295,7.35,8.336,7.243,8.336z"/>
</svg>
