<?xml version="1.0" encoding="utf-8"?>
<!-- Generator: Adobe Illustrator 16.0.0, SVG Export Plug-In . SVG Version: 6.00 Build 0)  -->
<!DOCTYPE svg PUBLIC "-//W3C//DTD SVG 1.1//EN" "http://www.w3.org/Graphics/SVG/1.1/DTD/svg11.dtd">
<svg version="1.1" id="图层_1" xmlns="http://www.w3.org/2000/svg" xmlns:xlink="http://www.w3.org/1999/xlink" x="0px" y="0px"
	 width="16px" height="16px" viewBox="0 0 16 16" enable-background="new 0 0 16 16" xml:space="preserve">
<path fill="#FFFFFF" d="M6.53,6.677L2.44,3.533C2.4,3.501,2.376,3.453,2.376,3.401S2.4,3.3,2.44,3.269l4.09-3.144
	C6.561,0.102,6.596,0.09,6.632,0.09c0.035,0,0.071,0.011,0.1,0.033c0.06,0.045,0.083,0.125,0.055,0.195L5.965,2.4l1.058,0.003
	c0,0,0.102,0.006,0.242,0.019l0-0.019C7.354,2.401,9.4,2.379,10.83,3.781c0.88,0.863,1.325,2.039,1.325,3.494v4.792h-1.997V7.274
	c0-0.912-0.236-1.588-0.727-2.068c-0.696-0.684-1.721-0.79-2.033-0.805H5.964l0.822,2.082c0.028,0.07,0.005,0.149-0.055,0.194
	C6.673,6.723,6.59,6.723,6.53,6.677z M13.301,12.941H3.216c-0.189,0-0.342,0.154-0.342,0.343v2.31c0,0.189,0.153,0.343,0.342,0.343
	h10.084c0.188,0,0.342-0.153,0.342-0.343v-2.31C13.643,13.095,13.489,12.941,13.301,12.941z"/>
</svg>
