<?xml version="1.0" standalone="no"?><!DOCTYPE svg PUBLIC "-//W3C//DTD SVG 1.1//EN" "http://www.w3.org/Graphics/SVG/1.1/DTD/svg11.dtd"><svg t="1569389859009" class="icon" viewBox="0 0 1024 1024" version="1.1" xmlns="http://www.w3.org/2000/svg" p-id="13405" xmlns:xlink="http://www.w3.org/1999/xlink" width="16" height="16"><defs><style type="text/css"></style></defs><path d="M512 67.331507c-279.145205 0-504.986301 225.841096-504.986301 504.986301C7.013699 716.8 70.136986 855.671233 178.147945 951.057534c14.027397 12.624658 36.471233 11.221918 49.095891-2.805479 12.624658-14.027397 11.221918-36.471233-2.80548-49.095891C130.454795 816.394521 77.150685 697.161644 77.150685 572.317808c0-239.868493 194.980822-434.849315 434.849315-434.849315s434.849315 194.980822 434.849315 434.849315c0 127.649315-56.109589 248.284932-152.89863 331.046576-15.430137 12.624658-16.832877 35.068493-4.208219 49.09589 7.013699 8.416438 16.832877 12.624658 26.652055 12.624658 8.416438 0 15.430137-2.805479 22.443835-8.416439 113.621918-96.789041 178.147945-237.063014 178.147945-384.350685 0-277.742466-225.841096-504.986301-504.986301-504.986301z" p-id="13406" fill="#ffffff"></path><path d="M499.375342 295.978082c11.221918 0 21.041096-9.819178 21.041096-21.041096v-71.539726c0-11.221918-9.819178-21.041096-21.041096-21.041096s-21.041096 9.819178-21.041095 21.041096v71.539726c0 11.221918 9.819178 21.041096 21.041095 21.041096zM392.767123 218.827397c-4.208219-11.221918-15.430137-16.832877-26.652055-12.624657-11.221918 4.208219-16.832877 15.430137-12.624657 26.652055l23.846575 67.331506c2.805479 8.416438 11.221918 14.027397 19.638356 14.027398 2.805479 0 4.208219 0 7.013699-1.40274 11.221918-4.208219 16.832877-15.430137 12.624658-26.652055L392.767123 218.827397zM279.145205 277.742466c-7.013699-8.416438-21.041096-9.819178-29.457534-2.80548-8.416438 7.013699-9.819178 21.041096-2.805479 29.457535l46.290411 54.706849c4.208219 5.610959 9.819178 7.013699 15.430137 7.013698 4.208219 0 9.819178-1.40274 14.027397-5.610958 8.416438-7.013699 9.819178-21.041096 2.805479-29.457535l-46.290411-53.304109zM232.854795 444.668493c2.805479 1.40274 7.013699 2.805479 9.819178 2.80548 7.013699 0 14.027397-4.208219 18.235616-11.221918 5.610959-9.819178 2.805479-22.443836-7.013699-28.054795l-61.720548-36.471233c-9.819178-5.610959-22.443836-2.805479-28.054794 7.013699-5.610959 9.819178-2.805479 22.443836 7.013699 28.054795l61.720548 37.873972zM117.830137 507.791781c-1.40274 11.221918 5.610959 22.443836 16.832877 23.846575l70.136986 12.624658h4.208219c9.819178 0 18.235616-7.013699 21.041096-16.832877 1.40274-11.221918-5.610959-22.443836-16.832877-23.846575l-70.136986-12.624658c-12.624658-1.40274-23.846575 5.610959-25.249315 16.832877zM140.273973 660.690411h4.208219l70.136986-12.624658c11.221918-1.40274 19.638356-12.624658 16.832877-23.846575-1.40274-11.221918-12.624658-19.638356-23.846576-16.832877l-70.136986 12.624658c-11.221918 1.40274-19.638356 12.624658-16.832877 23.846575 0 9.819178 8.416438 16.832877 19.638357 16.832877zM237.063014 706.980822L175.342466 743.452055c-9.819178 5.610959-14.027397 18.235616-7.013699 28.054794 4.208219 7.013699 11.221918 11.221918 18.235617 11.221918 4.208219 0 7.013699-1.40274 9.819178-2.805479l61.720548-36.471233c9.819178-5.610959 14.027397-18.235616 7.013698-28.054795-5.610959-11.221918-18.235616-15.430137-28.054794-8.416438zM824.810959 775.715068c7.013699 0 14.027397-4.208219 18.235616-11.221917 5.610959-9.819178 2.805479-22.443836-7.013698-28.054795l-61.720548-36.471233c-9.819178-5.610959-22.443836-2.805479-28.054795 7.013699-5.610959 9.819178-2.805479 22.443836 7.013699 28.054794l61.720548 36.471233c2.805479 2.805479 5.610959 4.208219 9.819178 4.208219zM800.964384 600.372603c-11.221918-1.40274-22.443836 5.610959-23.846576 16.832876-1.40274 11.221918 5.610959 22.443836 16.832877 23.846576l70.136986 12.624657h4.208219c9.819178 0 18.235616-7.013699 21.041096-16.832876 1.40274-11.221918-5.610959-22.443836-16.832876-23.846576l-71.539726-12.624657zM862.684932 483.945205l-70.136987 12.624658c-11.221918 1.40274-19.638356 12.624658-16.832877 23.846575 1.40274 9.819178 11.221918 16.832877 21.041096 16.832877h4.20822l70.136986-12.624657c11.221918-1.40274 19.638356-12.624658 16.832877-23.846576-2.805479-11.221918-14.027397-18.235616-25.249315-16.832877zM758.882192 441.863014c4.208219 0 7.013699-1.40274 9.819178-2.80548l61.720548-36.471233c9.819178-5.610959 14.027397-18.235616 7.013698-28.054794-5.610959-9.819178-18.235616-14.027397-28.054794-7.013699l-61.720548 36.471233c-9.819178 5.610959-14.027397 18.235616-7.013699 28.054795 4.208219 5.610959 11.221918 9.819178 18.235617 9.819178zM751.868493 270.728767c-8.416438-7.013699-22.443836-5.610959-29.457534 2.80548l-46.290411 54.706849c-7.013699 8.416438-5.610959 22.443836 2.805479 29.457534 4.208219 2.805479 8.416438 5.610959 14.027398 5.610959s12.624658-2.805479 15.430137-7.013699l46.290411-54.706849c7.013699-9.819178 5.610959-22.443836-2.80548-30.860274zM601.775342 312.810959c8.416438 0 16.832877-5.610959 19.638357-14.027397l23.846575-67.331507c4.208219-11.221918-1.40274-22.443836-12.624658-26.652055-11.221918-4.208219-22.443836 1.40274-26.652054 12.624658l-23.846576 67.331506c-4.208219 11.221918 1.40274 22.443836 12.624658 26.652055 1.40274 1.40274 4.208219 1.40274 7.013698 1.40274zM645.260274 415.210959c-12.624658-9.819178-30.860274-7.013699-40.679452 5.610959l-92.580822 122.038356c-16.832877 0-32.263014 7.013699-42.082192 19.638356-8.416438 11.221918-11.221918 23.846575-9.819178 36.471233 1.40274 12.624658 8.416438 25.249315 19.638356 33.665753 8.416438 7.013699 19.638356 9.819178 30.860274 9.819179h7.013699c12.624658-1.40274 25.249315-8.416438 33.665753-19.638357 9.819178-12.624658 12.624658-30.860274 8.416439-46.290411l92.580822-122.038356c4.208219-5.610959 7.013699-14.027397 5.610959-21.041096-2.805479-7.013699-7.013699-14.027397-12.624658-18.235616z" p-id="13407" fill="#ffffff"></path></svg>