<?xml version="1.0" encoding="utf-8"?>
<!-- Generator: Adobe Illustrator 16.0.0, SVG Export Plug-In . SVG Version: 6.00 Build 0)  -->
<!DOCTYPE svg PUBLIC "-//W3C//DTD SVG 1.1//EN" "http://www.w3.org/Graphics/SVG/1.1/DTD/svg11.dtd">
<svg version="1.1" id="图层_1" xmlns="http://www.w3.org/2000/svg" xmlns:xlink="http://www.w3.org/1999/xlink" x="0px" y="0px"
	 width="16px" height="16px" viewBox="0 0 16 16" enable-background="new 0 0 16 16" xml:space="preserve">
<path  d="M14.239,0.094H1.79c-0.624,0-1.131,0.507-1.131,1.132v13.58c0,0.624,0.508,1.132,1.131,1.132h12.449
	c0.623,0,1.131-0.508,1.131-1.132V1.226C15.37,0.601,14.862,0.094,14.239,0.094z M1.79,14.806v-1.015h1.698
	c0.313,0,0.565-0.253,0.565-0.565c0-0.312-0.252-0.566-0.565-0.566H1.79v-0.565h1.698c0.313,0,0.565-0.253,0.565-0.565
	s-0.252-0.565-0.565-0.565H1.79V1.226h12.449v9.737h-1.698c-0.313,0-0.565,0.253-0.565,0.565s0.253,0.565,0.565,0.565h1.699v0.565
	h-1.699c-0.313,0-0.565,0.255-0.565,0.566c0,0.313,0.253,0.565,0.565,0.565h1.699v1.015H1.79z"/>
<path  d="M13.674,1.792H2.356v8.488h11.317V1.792z M12.541,9.147H3.488V2.923h9.053V9.147z"/>
</svg>
