<?xml version="1.0" standalone="no"?><!DOCTYPE svg PUBLIC "-//W3C//DTD SVG 1.1//EN" "http://www.w3.org/Graphics/SVG/1.1/DTD/svg11.dtd"><svg t="1587711906990" class="icon" viewBox="0 0 1112 1024" version="1.1" xmlns="http://www.w3.org/2000/svg" p-id="2288" xmlns:xlink="http://www.w3.org/1999/xlink" width="217.1875" height="200"><defs><style type="text/css"></style></defs><path d="M872.167351 87.799782L1024.299887 569.357769V936.23123H88.099669V569.357769L240.232204 87.799782h631.935147m43.006698-87.76877H197.225507a29.256257 29.256257 0 0 0-29.256257 20.479379L0.330898 551.511453a29.256257 29.256257 0 0 0 0 8.776877V994.743743a29.256257 29.256257 0 0 0 29.256257 29.256257h1053.225245a29.256257 29.256257 0 0 0 29.256257-29.256257V560.28833a29.256257 29.256257 0 0 0 0-8.776877L942.967493 20.510391a29.256257 29.256257 0 0 0-29.256257-20.479379z" p-id="2289"></path><path d="M658.596677 720.905179a43.884385 43.884385 0 1 0 43.884385 43.884386 43.884385 43.884385 0 0 0-43.884385-43.884386zM863.390474 720.905179a43.884385 43.884385 0 1 0 43.884385 43.884386 43.884385 43.884385 0 0 0-43.884385-43.884386zM1056.774332 595.980963H55.625224a44.176948 44.176948 0 0 1 0-87.768771h1001.149108a44.176948 44.176948 0 0 1 0 87.768771z" p-id="2290"></path></svg>